<svg xmlns="http://www.w3.org/2000/svg" viewBox="0 0 108 108">
  <path fill="#FFF" d="M4 34h100v40H4z"/>
  <path fill="#005EB8" d="M104 34v40H4V34h100Zm-13.8 2.8c-7.2 0-14.5 2.5-14.5 11 0 5 3.9 6.7 7.4 8.1l.4.1c2.7 1 5 2 5 4.3 0 3.2-4.3 3.7-7 3.7a19 19 0 0 1-8-1.8l-2 6.8c2.8 1 6.8 1.8 10 1.8 7.8 0 16-2.3 16-11.3 0-9.8-12.8-8.3-12.8-12.8 0-2.7 2.8-3.2 6.3-3.2 2.5 0 5 .5 7.3 1.5l2-6.8c-2.3-1-6-1.5-10-1.5Zm-65.5 1h-11l-7 32.5H15l4.5-22.5h.3l6.7 22.5h10.8l7-32.5H36l-4.5 22.5h-.3l-6.4-22.5Zm31.6 0h-9l-6.5 32.5h8.5l3-14h10.2l-2.8 14h8.8l6.8-32.5h-8.8L63.7 50h-10l2.5-12.3Z"/>
</svg>
