<?xml version="1.0" encoding="UTF-8"?>
<svg width="50px" height="50px" viewBox="0 0 50 50" version="1.1" xmlns="http://www.w3.org/2000/svg" xmlns:xlink="http://www.w3.org/1999/xlink">
    <!-- Generator: Sketch 50 (54983) - http://www.bohemiancoding.com/sketch -->
    <title>Group 40</title>
    <desc>Created with Sketch.</desc>
    <defs></defs>
    <g id="NHS-Redesign---Components-v0.1" stroke="none" stroke-width="1" fill="none" fill-rule="evenodd">
        <g id="Group" transform="translate(-26.000000, -135.000000)">
            <g id="Group-2" transform="translate(0.000000, 109.000000)">
                <g id="Group-40" transform="translate(26.000000, 26.000000)">
                    <rect id="Rectangle" fill="#0058AD" x="0" y="0" width="50" height="50" rx="3"></rect>
                    <path d="M25.0307692,36.9333333 C23.9153027,36.9189712 23.0145831,36.0318988 23,34.9333333 L23,24 C23.0145831,22.9014345 23.9153027,22.0143622 25.0307692,22 C26.1462357,22.0143622 27.0469553,22.9014345 27.0615385,24 L27.0615385,34.9333333 C27.0469553,36.0318988 26.1462357,36.9189712 25.0307692,36.9333333 Z M24.7076923,19.3333333 C23.2122751,19.3333333 22,18.139426 22,16.6666667 C22,15.1939073 23.2122751,14 24.7076923,14 C26.2031095,14 27.4153846,15.1939073 27.4153846,16.6666667 C27.4153846,18.139426 26.2031095,19.3333333 24.7076923,19.3333333 Z" id="Combined-Shape" fill="#FFFFFF" fill-rule="nonzero"></path>
                </g>
            </g>
        </g>
    </g>
</svg>