<?xml version="1.0" encoding="UTF-8"?>
<svg width="80px" height="80px" viewBox="0 0 80 80" version="1.1" xmlns="http://www.w3.org/2000/svg" xmlns:xlink="http://www.w3.org/1999/xlink">
    <!-- Generator: Sketch 50 (54983) - http://www.bohemiancoding.com/sketch -->
    <title>callout-icon-info</title>
    <desc>Created with Sketch.</desc>
    <defs></defs>
    <g id="NHS-Redesign---Components-v0.1" stroke="none" stroke-width="1" fill="none" fill-rule="evenodd">
        <g id="NHS-Redesign---Callout-Box-Ideas-v3" transform="translate(-636.000000, -304.000000)">
            <g id="callout-icon-info" transform="translate(636.000000, 304.000000)">
                <rect id="Rectangle-3" fill="#0058AD" fill-rule="evenodd" x="0" y="0" width="80" height="80"></rect>
                <path d="M40.2307692,57.8333333 C38.4878528,57.8108924 37.0804784,56.4248419 37.0576923,54.7083333 L37.0576923,37.625 C37.0804784,35.9084914 38.4878528,34.5224409 40.2307692,34.5 C41.9736857,34.5224409 43.38106,35.9084914 43.4038462,37.625 L43.4038462,54.7083333 C43.38106,56.4248419 41.9736857,57.8108924 40.2307692,57.8333333 Z M40.2307692,30.3333333 C37.8941799,30.3333333 36,28.4678531 36,26.1666667 C36,23.8654802 37.8941799,22 40.2307692,22 C42.5673586,22 44.4615385,23.8654802 44.4615385,26.1666667 C44.4615385,28.4678531 42.5673586,30.3333333 40.2307692,30.3333333 Z" id="Combined-Shape" fill="#FFFFFF" fill-rule="nonzero"></path>
            </g>
        </g>
    </g>
</svg>
