<?xml version="1.0" encoding="UTF-8"?>
<svg width="6px" height="9px" viewBox="0 0 6 9" version="1.1" xmlns="http://www.w3.org/2000/svg" xmlns:xlink="http://www.w3.org/1999/xlink">
    <!-- Generator: Sketch 50.2 (55047) - http://www.bohemiancoding.com/sketch -->
    <title>Icon-chevron-right_v2</title>
    <desc>Created with Sketch.</desc>
    <defs></defs>
    <g id="Page-1" stroke="none" stroke-width="1" fill="none" fill-rule="evenodd">
        <g id="breadcrumb-desktop" transform="translate(-78.000000, -22.000000)" fill="#AEB7BD" fill-rule="nonzero">
            <g transform="translate(16.000000, 9.000000)" id="Icon-chevron-right_v2">
                <g transform="translate(62.074510, 13.000000)">
                    <path d="M5.00489,4.49999143 C5.00598811,4.69920744 4.93142316,4.89068513 4.79766636,5.03212753 L1.22484498,8.77956487 C1.04358963,8.96967879 0.779404203,9.04392672 0.531804788,8.9743402 C0.284205374,8.90475368 0.0908082161,8.70190454 0.0244641529,8.4422041 C-0.0418799103,8.18250366 0.0289083624,7.90540658 0.210163714,7.71529267 L3.2827901,4.49999143 L0.210163714,1.28469019 C-0.0700327821,0.99079954 -0.0700327821,0.514308644 0.210163714,0.22041799 C0.49036021,-0.0734726635 0.944648489,-0.0734726635 1.22484498,0.22041799 L4.79766636,3.96785533 C4.93142316,4.10929773 5.00598811,4.30077542 5.00489,4.49999143 Z" id="Shape"></path>
                </g>
            </g>
        </g>
    </g>
</svg>