<?xml version="1.0" encoding="UTF-8"?>
<svg width="7px" height="12px" viewBox="0 0 7 12" version="1.1" xmlns="http://www.w3.org/2000/svg" xmlns:xlink="http://www.w3.org/1999/xlink">
    <!-- Generator: Sketch 50.2 (55047) - http://www.bohemiancoding.com/sketch -->
    <title>Icon-chevron-right_v2</title>
    <desc>Created with Sketch.</desc>
    <defs></defs>
    <g id="Page-1" stroke="none" stroke-width="1" fill="none" fill-rule="evenodd">
        <g id="breadcrumb-mobile" transform="translate(-16.000000, -18.000000)" fill="#AEB7BD" fill-rule="nonzero">
            <g id="Icon-chevron-right_v2" transform="translate(16.000000, 18.000000)">
                <path d="M6.66665074,5.99998857 C6.66811345,6.26560991 6.56879089,6.52091351 6.39062317,6.70950338 L1.63152711,11.7060865 C1.39009001,11.9595717 1.03818777,12.058569 0.708378562,11.9657869 C0.378569352,11.8730049 0.120959034,11.6025394 0.0325869225,11.2562721 C-0.0557851891,10.9100049 0.0385067315,10.5405421 0.27994383,10.2870569 L4.37276644,5.99998857 L0.27994383,1.71292026 C-0.0932855864,1.32106605 -0.0932855864,0.685744859 0.27994383,0.293890654 C0.653173247,-0.0979635513 1.25829769,-0.0979635513 1.63152711,0.293890654 L6.39062317,5.29047377 C6.56879089,5.47906364 6.66811345,5.73436723 6.66665074,5.99998857 Z" id="Shape" transform="translate(3.333333, 6.000000) scale(-1, 1) translate(-3.333333, -6.000000) "></path>
            </g>
        </g>
    </g>
</svg>