<svg id="Layer_1" data-name="Layer 1" xmlns="http://www.w3.org/2000/svg" viewBox="0 0 24 24"><defs><style>.cls-1{fill:none;stroke:#0057ab;stroke-miterlimit:10;}.cls-2{fill:#0057ab;}</style></defs><title>Icon-arrow1_right-circle-open_v2</title><circle class="cls-1" cx="12" cy="12" r="9.5"/><path class="cls-2" d="M17.92,12.39a1,1,0,0,0,0-.78.87.87,0,0,0-.22-.32h0l-5-5a1,1,0,0,0-1.4,1.42L14.57,11H7a1,1,0,0,0,0,2h7.57l-3.32,3.29a1,1,0,0,0,0,1.41A1,1,0,0,0,12,18a1,1,0,0,0,.7-.29l5-5h0A.87.87,0,0,0,17.92,12.39Z"/></svg>