<svg id="Layer_1" data-name="Layer 1" xmlns="http://www.w3.org/2000/svg" viewBox="0 0 24 24"><defs><style>.cls-1{fill:#0057ab;}.cls-2,.cls-3{fill:#fff;}.cls-2{opacity:0.4;}</style></defs><title>Icon-calendar1-circle_v2</title><circle class="cls-1" cx="12" cy="12" r="10"/><rect class="cls-2" x="7" y="7" width="10" height="1.67"/><path class="cls-3" d="M16,17H8a1,1,0,0,1-1-1V9.5H17V16A1,1,0,0,1,16,17Z"/><path class="cls-1" d="M9.23,14.51a2.41,2.41,0,0,0,.9.18c.33,0,.85-.16.85-.57s-.38-.63-.89-.63h-.4v-.64h.37c.55,0,.9-.18.9-.54s-.33-.53-.69-.53a2.25,2.25,0,0,0-.92.21l0-.64a3,3,0,0,1,1.13-.21c.5,0,1.33.18,1.33,1a1,1,0,0,1-.75,1h0a.88.88,0,0,1,.77,1c0,1-.87,1.2-1.55,1.2a4,4,0,0,1-1.06-.13Z"/><path class="cls-1" d="M13.79,11.21h.72v4h-.82V12.13l-.68.56-.41-.53Z"/></svg>