<svg id="Layer_1" data-name="Layer 1" xmlns="http://www.w3.org/2000/svg" viewBox="0 0 24 24"><defs><style>.cls-1{fill:#0057ab;}</style></defs><title>Icon-menu 2_v2</title><path class="cls-1" d="M17.33,8H6.67C6.3,8,6,7.55,6,7s.3-1,.67-1H17.33c.37,0,.67.45.67,1S17.7,8,17.33,8Z"/><path class="cls-1" d="M17.33,13H6.67C6.3,13,6,12.55,6,12s.3-1,.67-1H17.33c.37,0,.67.45.67,1S17.7,13,17.33,13Z"/><path class="cls-1" d="M17.33,18H6.67C6.3,18,6,17.55,6,17s.3-1,.67-1H17.33c.37,0,.67.45.67,1S17.7,18,17.33,18Z"/></svg>