<?xml version="1.0" encoding="UTF-8"?>
<svg width="24px" height="22px" viewBox="0 0 24 22" version="1.1" xmlns="http://www.w3.org/2000/svg" xmlns:xlink="http://www.w3.org/1999/xlink">
    <!-- Generator: Sketch 50.2 (55047) - http://www.bohemiancoding.com/sketch -->
    <title>Group 4</title>
    <desc>Created with Sketch.</desc>
    <defs></defs>
    <g id="NHS-Redesign---Components-v0.1" stroke="none" stroke-width="1" fill="none" fill-rule="evenodd">
        <g id="Yellow-callout-custom-headings-Copy" transform="translate(-210.000000, -2723.000000)" fill="#212B32" fill-rule="nonzero">
            <g id="Group-4" transform="translate(210.000000, 2723.000000)">
                <path d="M23.6426522,17.3573029 C24.1188713,18.1770079 24.1191322,19.1868659 23.6433367,20.0068138 C23.1675411,20.8267617 22.2878967,21.3323631 21.33546,21.3333333 L2.66454005,21.3333333 C1.71210335,21.3323631 0.832458855,20.8267617 0.356663337,20.0068138 C-0.119132181,19.1868659 -0.118871298,18.1770079 0.357347803,17.3573029 L9.69280775,1.32064683 C10.1699801,0.503169215 11.0490252,1.51740893e-16 12,0 C12.9509748,-1.51740893e-16 13.8300199,0.503169215 14.3071922,1.32064683 L23.6426522,17.3573029 Z M12.0235215,14.6666667 L12.2116934,14.6666667 L13.3289643,7.12921348 C13.3347897,7.02444507 13.3347897,6.91937515 13.3289643,6.81460674 C13.3289643,5.99652203 12.7339667,5.33333333 12,5.33333333 C11.2660333,5.33333333 10.6710357,5.99652203 10.6710357,6.81460674 C10.6652103,6.91937515 10.6652103,7.02444507 10.6710357,7.12921348 L11.8471103,14.6666667 L12.0235215,14.6666667 Z M12,18.6666667 C12.7363797,18.6666667 13.3333333,18.069713 13.3333333,17.3333333 C13.3333333,16.5969537 12.7363797,16 12,16 C11.2636203,16 10.6666667,16.5969537 10.6666667,17.3333333 C10.6666667,18.069713 11.2636203,18.6666667 12,18.6666667 Z" id="Combined-Shape"></path>
            </g>
        </g>
    </g>
</svg>