<?xml version="1.0" encoding="UTF-8"?>
<svg width="80px" height="80px" viewBox="0 0 80 80" version="1.1" xmlns="http://www.w3.org/2000/svg" xmlns:xlink="http://www.w3.org/1999/xlink">
    <!-- Generator: Sketch 50 (54983) - http://www.bohemiancoding.com/sketch -->
    <title>callout-icon-info</title>
    <desc>Created with Sketch.</desc>
    <defs></defs>
    <g id="NHS-Redesign---Components-v0.1" stroke="none" stroke-width="1" fill="none" fill-rule="evenodd">
        <g id="NHS-Redesign---Callout-Box-Ideas-v3" transform="translate(-1386.000000, -304.000000)">
            <g id="callout-icon-warning-yellow" transform="translate(1386.000000, 304.000000)">
                <rect id="Rectangle-3" fill="#FFB81C" fill-rule="evenodd" x="0" y="0" width="80" height="80"></rect>
                <path d="M39.9712814,65 C37.6346921,65 35.7405122,63.1345198 35.7405122,60.8333333 C35.7405122,58.5321469 37.6346921,56.6666667 39.9712814,56.6666667 C42.3078707,56.6666667 44.2020506,58.5321469 44.2020506,60.8333333 C44.2020506,63.1345198 42.3078707,65 39.9712814,65 Z M45.8943583,20.8333333 C45.9030693,21.2697593 45.8460392,21.7050461 45.7251275,22.125 L42.5097429,49.1666667 C42.5097429,50.5473785 41.373235,51.6666667 39.9712814,51.6666667 C38.5693278,51.6666667 37.4328198,50.5473785 37.4328198,49.1666667 L34.0482045,22.125 C33.9839318,21.6967709 33.9839318,21.2615624 34.0482045,20.8333333 C34.0482045,17.6116723 36.7000563,15 39.9712814,15 C43.2425064,15 45.8943583,17.6116723 45.8943583,20.8333333 Z" id="Combined-Shape" fill="#212B32" fill-rule="nonzero"></path>
            </g>
        </g>
    </g>
</svg>
