<?xml version="1.0" encoding="UTF-8"?>
<svg width="80px" height="80px" viewBox="0 0 80 80" version="1.1" xmlns="http://www.w3.org/2000/svg" xmlns:xlink="http://www.w3.org/1999/xlink">
    <!-- Generator: Sketch 50 (54983) - http://www.bohemiancoding.com/sketch -->
    <title>callout-icon-info</title>
    <desc>Created with Sketch.</desc>
    <defs></defs>
    <g id="NHS-Redesign---Components-v0.1" stroke="none" stroke-width="1" fill="none" fill-rule="evenodd">
        <g id="NHS-Redesign---Callout-Box-Ideas-v3" transform="translate(-1386.000000, -304.000000)">
            <g id="callout-icon-warning-yellow" transform="translate(1386.000000, 304.000000)">
                <rect id="Rectangle-3" fill="#FFB81C" fill-rule="evenodd" x="0" y="0" width="80" height="80"></rect>
                <path d="M40.0011489,64.0002719 C37.7920099,64.0002719 36.0011489,62.2094109 36.0011489,60.0002719 C36.0011489,57.7911329 37.7920099,56.0002719 40.0011489,56.0002719 C42.2102879,56.0002719 44.0011489,57.7911329 44.0011489,60.0002719 C44.0011489,62.2094109 42.2102879,64.0002719 40.0011489,64.0002719 Z M43.7211489,16.3202719 C43.9133468,16.5253603 44.0143495,16.7995103 44.0011489,17.0802719 L41.0011489,50.6802719 C41.0011489,51.2325566 40.5534336,51.6802719 40.0011489,51.6802719 C39.4488641,51.6802719 39.0011489,51.2325566 39.0011489,50.6802719 L36.0011489,17.0802719 C35.9879483,16.7995103 36.0889509,16.5253603 36.2811489,16.3202719 C36.4610185,16.1110317 36.7253053,15.9935709 37.0011489,16.0002719 L43.0011489,16.0002719 C43.2769924,15.9935709 43.5412792,16.1110317 43.7211489,16.3202719 Z" id="nhsuk-icon-warning" fill="#212B32" fill-rule="nonzero"></path>
            </g>
        </g>
    </g>
</svg>
