<?xml version="1.0" encoding="UTF-8"?>
<svg width="50px" height="50px" viewBox="0 0 50 50" version="1.1" xmlns="http://www.w3.org/2000/svg" xmlns:xlink="http://www.w3.org/1999/xlink">
    <!-- Generator: Sketch 50 (54983) - http://www.bohemiancoding.com/sketch -->
    <title>Group 12</title>
    <desc>Created with Sketch.</desc>
    <defs></defs>
    <g id="NHS-Redesign---Components-v0.1" stroke="none" stroke-width="1" fill="none" fill-rule="evenodd">
        <g id="NHS-Redesign---Callout-Box-Ideas---After-popup-research" transform="translate(-930.000000, -1604.000000)">
            <g id="Group-12" transform="translate(930.000000, 1604.000000)">
                <path d="M25,0 C11.2,0 0,11.2 0,25 C0,38.8 11.2,50 25,50 C38.8,50 50,38.8 50,25 C50,11.2 38.8,0 25,0 L25,0 Z" id="Shape" fill="#212B32" transform="translate(25.000000, 25.000000) rotate(180.000000) translate(-25.000000, -25.000000) "></path>
                <path d="M24.8216201,41 C23.3262029,41 22.1139278,39.8060927 22.1139278,38.3333333 C22.1139278,36.860574 23.3262029,35.6666667 24.8216201,35.6666667 C26.3170373,35.6666667 27.5293124,36.860574 27.5293124,38.3333333 C27.5293124,39.8060927 26.3170373,41 24.8216201,41 Z M28.6123893,12.7333333 C28.6179644,13.0126459 28.5814651,13.2912295 28.5040816,13.56 L26.4462355,30.8666667 C26.4462355,31.7503223 25.7188704,32.4666667 24.8216201,32.4666667 C23.9243698,32.4666667 23.1970047,31.7503223 23.1970047,30.8666667 L21.0308509,13.56 C20.9897164,13.2859334 20.9897164,13.0073999 21.0308509,12.7333333 C21.0308509,10.6714703 22.7280361,9 24.8216201,9 C26.9152041,9 28.6123893,10.6714703 28.6123893,12.7333333 Z" id="Combined-Shape" fill="#FAE200" fill-rule="nonzero"></path>
            </g>
        </g>
    </g>
</svg>