<?xml version="1.0" encoding="UTF-8"?>
<svg width="50px" height="50px" viewBox="0 0 50 50" version="1.1" xmlns="http://www.w3.org/2000/svg" xmlns:xlink="http://www.w3.org/1999/xlink">
    <!-- Generator: Sketch 50 (54983) - http://www.bohemiancoding.com/sketch -->
    <title>Group 11</title>
    <desc>Created with Sketch.</desc>
    <defs></defs>
    <g id="NHS-Redesign---Components-v0.1" stroke="none" stroke-width="1" fill="none" fill-rule="evenodd">
        <g id="NHS-Redesign---Callout-Box-Ideas-v2" transform="translate(-1281.000000, -411.000000)">
            <g id="Group-11" transform="translate(1281.000000, 411.000000)">
                <rect id="Rectangle-3" fill="#FFB81C" x="0" y="0" width="50" height="50"></rect>
                <g id="Group" transform="translate(9.000000, 8.000000)">
                    <circle id="Oval-2" fill="#212B32" cx="16.5" cy="16.5" r="12.5"></circle>
                    <path d="M16.4473684,0 C7.36842105,0 0,7.36842105 0,16.4473684 C0,25.5263158 7.36842105,32.8947368 16.4473684,32.8947368 C25.5263158,32.8947368 32.8947368,25.5263158 32.8947368,16.4473684 C32.8947368,7.36842105 25.5263158,0 16.4473684,0 L16.4473684,0 Z M18.4210526,25 L15.1315789,25 L15.1315789,15.1315789 L18.4210526,15.1315789 L18.4210526,25 L18.4210526,25 Z M18.4210526,11.8421053 L15.1315789,11.8421053 L15.1315789,8.55263158 L18.4210526,8.55263158 L18.4210526,11.8421053 L18.4210526,11.8421053 Z" id="Shape" fill="#FFFFFF" transform="translate(16.447368, 16.447368) rotate(180.000000) translate(-16.447368, -16.447368) "></path>
                </g>
            </g>
        </g>
    </g>
</svg>
