<?xml version="1.0" encoding="UTF-8"?>
<svg width="99px" height="40px" viewBox="0 0 99 40" version="1.1" xmlns="http://www.w3.org/2000/svg" xmlns:xlink="http://www.w3.org/1999/xlink">
    <!-- Generator: Sketch 49.2 (51160) - http://www.bohemiancoding.com/sketch -->
    <title>nhs-logo</title>
    <desc>Created with Sketch.</desc>
    <defs></defs>
    <g id="nhs-logo" stroke="none" stroke-width="1" fill="none" fill-rule="evenodd">
        <g fill-rule="nonzero">
            <polygon id="Fill-1" fill="#FFFFFF" points="0 39.8420217 98.2032052 39.8420217 98.2032052 0 0 0"></polygon>
            <polyline id="Fill-2" fill="#0058AD" points="9.54758962 3.81675019 20.1612787 3.81675019 26.6801767 25.8961592 26.7701721 25.8961592 31.2359057 3.81675019 39.2570348 3.81675019 32.5166096 35.6562997 21.9392648 35.6562997 15.288835 13.6248166 15.1988396 13.6248166 10.7746424 35.6562997 2.75351331 35.6562997 9.54758962 3.81675019"></polyline>
            <polyline id="Fill-3" fill="#0058AD" points="42.3999513 3.81675019 50.9183627 3.81675019 48.4157981 15.9974378 58.4848996 15.9974378 60.9932331 3.81675019 69.5116445 3.81675019 62.902751 35.6562997 54.3843396 35.6562997 57.2099646 22.0193573 47.1350942 22.0193573 44.3094692 35.6562997 35.7910579 35.6562997 42.3999513 3.81675019"></polyline>
            <path d="M91.929731,11.0246916 C90.2896224,10.2515254 88.0570441,9.56843683 84.9141276,9.56843683 C81.543915,9.56843683 78.8082854,10.0661734 78.8082854,12.6241467 C78.8082854,17.1361113 91.1578473,15.4523528 91.1578473,25.122993 C91.1578473,33.9246153 82.9982638,36.2077364 75.6174867,36.2077364 C72.3366926,36.2077364 68.5534241,35.428796 65.7762582,34.559778 L67.7815405,28.0828511 C69.4637623,29.1793728 72.8397438,29.9103873 75.6174867,29.9103873 C78.2631209,29.9103873 82.405794,29.4068765 82.405794,26.123663 C82.405794,21.0129132 70.0562321,22.9299496 70.0562321,13.9481721 C70.0562321,5.7337866 77.2575953,3.27166514 84.2316624,3.27166514 C88.1522315,3.27166514 91.8403125,3.68509829 93.9828955,4.68519078 L91.929731,11.0246916" id="Fill-4" fill="#0058AD"></path>
        </g>
    </g>
</svg>