<svg id="Layer_1" data-name="Layer 1" xmlns="http://www.w3.org/2000/svg" viewBox="0 0 24 24"><defs><style>.cls-1,.cls-2{fill:#0057ab;}.cls-1{opacity:0.4;}.cls-3{fill:#fff;}</style></defs><title>Icon-calendar1_v2</title><rect class="cls-1" x="6" y="6" width="12" height="2"/><path class="cls-2" d="M17,18H7a1,1,0,0,1-1-1V9H18v8A1,1,0,0,1,17,18Z"/><path class="cls-3" d="M8.67,15a3,3,0,0,0,1.08.22c.41,0,1-.19,1-.69s-.46-.76-1.08-.76H9.23V13h.44c.66,0,1.08-.22,1.08-.64s-.39-.64-.83-.64a2.64,2.64,0,0,0-1.1.25l-.05-.78A3.83,3.83,0,0,1,10.13,11c.6,0,1.6.21,1.6,1.25a1.19,1.19,0,0,1-.91,1.16h0a1.07,1.07,0,0,1,.93,1.16c0,1.16-1.05,1.45-1.86,1.45a5.13,5.13,0,0,1-1.27-.16Z"/><path class="cls-3" d="M14.14,11.05H15v4.87H14V12.16l-.82.67-.49-.63Z"/></svg>