<?xml version="1.0" encoding="UTF-8"?>
<svg width="8px" height="12px" viewBox="0 0 8 12" version="1.1" xmlns="http://www.w3.org/2000/svg" xmlns:xlink="http://www.w3.org/1999/xlink">
    <!-- Generator: Sketch 50.2 (55047) - http://www.bohemiancoding.com/sketch -->
    <title>Shape</title>
    <desc>Created with Sketch.</desc>
    <defs></defs>
    <g id="Page-1" stroke="none" stroke-width="1" fill="none" fill-rule="evenodd">
        <g id="Icon-chevron-right_v2" transform="translate(4.000000, 6.000000) scale(-1, 1) translate(-4.000000, -6.000000) translate(0.000000, -1.000000)" fill="#0057AB" fill-rule="nonzero">
            <path d="M7.5,7 C7.50153676,7.26580298 7.39718651,7.52128117 7.21,7.71 L2.21,12.71 C1.95634143,12.9636586 1.58662601,13.0627235 1.24012196,12.969878 C0.893617914,12.8770326 0.622967443,12.6063821 0.530121963,12.259878 C0.437276483,11.913374 0.536341431,11.5436586 0.79,11.29 L5.09,7 L0.79,2.71 C0.397877828,2.31787783 0.397877828,1.68212217 0.79,1.29 C1.18212217,0.897877828 1.81787783,0.897877828 2.21,1.29 L7.21,6.29 C7.39718651,6.47871883 7.50153676,6.73419702 7.5,7 Z" id="Shape"></path>
        </g>
    </g>
</svg>