<svg xmlns="http://www.w3.org/2000/svg" width="680" height="560">
  <g fill="none" fill-rule="evenodd">
    <g fill-rule="nonzero">
      <path fill="#323232" stroke="#0B0C0C" stroke-width="6" d="M627 133v154H433V133h194Z"/>
      <path fill="#B1B4B6" d="m473.6 160-20.3-11.6c-.4-.2-.8-.4-1.2-.4a2 2 0 0 0-2 2c0 .9.5 1.6 1.3 2l15.8 9-16 9.1a2 2 0 0 0-1.2 2c0 1 .9 1.9 2 1.9.4 0 .9-.2 1.2-.4l20.3-11.7c.5-.3.6-1 .4-1.5 0-.2-.2-.3-.3-.4Zm30.8 24.5c-.5-.4-1.1-.6-1.7-.5h-25.5c-.6 0-1.2.1-1.6.5-.8.7-.8 2 0 2.9.5.5 1 .7 1.6.6h25.5c.6 0 1.2-.1 1.7-.5a2 2 0 0 0 0-3Z"/>
    </g>
    <path fill="#FFF" fill-rule="nonzero" stroke="#005EB8" stroke-width="2" d="M566 269a7 7 0 0 1 7 7v251H191V276a7 7 0 0 1 7-7Z"/>
    <path fill="#D8DDE0" fill-rule="nonzero" d="M206 282h352a2 2 0 0 1 2 2v222H204V284c0-1.1.9-2 2-2Z"/>
    <path fill="#005EB8" fill-rule="nonzero" d="M228 306h308v38H228z"/>
    <text fill="#FFF" font-family="sans-serif" font-size="16" font-weight="400" letter-spacing=".5">
      <tspan x="248" y="331">Service</tspan>
    </text>
    <path fill="#FFF" fill-rule="nonzero" stroke="#005EB8" stroke-width="2" d="M229 343h306v138H229z"/>
    <path fill="#AEB7BD" fill-rule="nonzero" d="M248 362h100v12H248Zm0 22h176v12H248Zm0 22h176v12H248Zm0 22h158v12H248v-12Zm0 22h86v12h-86v-12Z"/>
    <rect width="450" height="24" x="157" y="505" fill="#FFF" fill-rule="nonzero" stroke="#005EB8" stroke-width="2" rx="2"/>
    <path fill="#005EB8" fill-rule="nonzero" stroke="#005EB8" stroke-width="2" d="M355.8 513a6 6 0 0 1-5.8-6h64a6 6 0 0 1-5.8 6h-52.4Z"/>
    <path fill="#FFF" fill-opacity=".5" fill-rule="nonzero" d="M633 481.5c0-1.9 1.6-3.5 3.5-3.5s3.5 1.6 3.5 3.5-1.6 3.5-3.5 3.5a3.5 3.5 0 0 1-3.5-3.5Zm-14 0c0-1.9 1.6-3.5 3.5-3.5s3.5 1.6 3.5 3.5-1.6 3.5-3.5 3.5a3.5 3.5 0 0 1-3.5-3.5Zm-14 0c0-1.9 1.6-3.5 3.5-3.5s3.5 1.6 3.5 3.5-1.6 3.5-3.5 3.5a3.5 3.5 0 0 1-3.5-3.5Zm-14 0c0-1.9 1.6-3.5 3.5-3.5s3.5 1.6 3.5 3.5-1.6 3.5-3.5 3.5a3.5 3.5 0 0 1-3.5-3.5Zm-14 0c0-1.9 1.6-3.5 3.5-3.5s3.5 1.6 3.5 3.5-1.6 3.5-3.5 3.5a3.5 3.5 0 0 1-3.5-3.5Zm56-175c0-1.9 1.6-3.5 3.5-3.5s3.5 1.6 3.5 3.5-1.6 3.5-3.5 3.5a3.5 3.5 0 0 1-3.5-3.5Zm-14 0c0-1.9 1.6-3.5 3.5-3.5s3.5 1.6 3.5 3.5-1.6 3.5-3.5 3.5a3.5 3.5 0 0 1-3.5-3.5Zm-14 0c0-1.9 1.6-3.5 3.5-3.5s3.5 1.6 3.5 3.5-1.6 3.5-3.5 3.5a3.5 3.5 0 0 1-3.5-3.5Zm-14 0c0-1.9 1.6-3.5 3.5-3.5s3.5 1.6 3.5 3.5-1.6 3.5-3.5 3.5a3.5 3.5 0 0 1-3.5-3.5Zm-14 0c0-1.9 1.6-3.5 3.5-3.5s3.5 1.6 3.5 3.5-1.6 3.5-3.5 3.5a3.5 3.5 0 0 1-3.5-3.5Zm-411 0c0-1.9 1.6-3.5 3.5-3.5s3.5 1.6 3.5 3.5-1.6 3.5-3.5 3.5a3.5 3.5 0 0 1-3.5-3.5Zm14 0c0-1.9 1.6-3.5 3.5-3.5s3.5 1.6 3.5 3.5-1.6 3.5-3.5 3.5a3.5 3.5 0 0 1-3.5-3.5Zm-28 0c0-1.9 1.6-3.5 3.5-3.5s3.5 1.6 3.5 3.5-1.6 3.5-3.5 3.5a3.5 3.5 0 0 1-3.5-3.5Zm-14 0c0-1.9 1.6-3.5 3.5-3.5s3.5 1.6 3.5 3.5-1.6 3.5-3.5 3.5a3.5 3.5 0 0 1-3.5-3.5Zm-14 0c0-1.9 1.6-3.5 3.5-3.5s3.5 1.6 3.5 3.5-1.6 3.5-3.5 3.5a3.5 3.5 0 0 1-3.5-3.5Zm-14 0c0-1.9 1.6-3.5 3.5-3.5s3.5 1.6 3.5 3.5-1.6 3.5-3.5 3.5a3.5 3.5 0 0 1-3.5-3.5Zm-14 0c0-1.9 1.6-3.5 3.5-3.5s3.5 1.6 3.5 3.5-1.6 3.5-3.5 3.5a3.5 3.5 0 0 1-3.5-3.5Zm-14 0c0-1.9 1.6-3.5 3.5-3.5s3.5 1.6 3.5 3.5-1.6 3.5-3.5 3.5a3.5 3.5 0 0 1-3.5-3.5Zm-28 0c0-1.9 1.6-3.5 3.5-3.5s3.5 1.6 3.5 3.5-1.6 3.5-3.5 3.5a3.5 3.5 0 0 1-3.5-3.5Zm14 0c0-1.9 1.6-3.5 3.5-3.5s3.5 1.6 3.5 3.5-1.6 3.5-3.5 3.5a3.5 3.5 0 0 1-3.5-3.5Zm-28 0c0-1.9 1.6-3.5 3.5-3.5s3.5 1.6 3.5 3.5-1.6 3.5-3.5 3.5a3.5 3.5 0 0 1-3.5-3.5Zm126 175c0-1.9 1.6-3.5 3.5-3.5s3.5 1.6 3.5 3.5-1.6 3.5-3.5 3.5a3.5 3.5 0 0 1-3.5-3.5Zm14 0c0-1.9 1.6-3.5 3.5-3.5s3.5 1.6 3.5 3.5-1.6 3.5-3.5 3.5a3.5 3.5 0 0 1-3.5-3.5Zm-28 0c0-1.9 1.6-3.5 3.5-3.5s3.5 1.6 3.5 3.5-1.6 3.5-3.5 3.5a3.5 3.5 0 0 1-3.5-3.5Zm-14 0c0-1.9 1.6-3.5 3.5-3.5s3.5 1.6 3.5 3.5-1.6 3.5-3.5 3.5a3.5 3.5 0 0 1-3.5-3.5Zm-14 0c0-1.9 1.6-3.5 3.5-3.5s3.5 1.6 3.5 3.5-1.6 3.5-3.5 3.5a3.5 3.5 0 0 1-3.5-3.5Zm-14 0c0-1.9 1.6-3.5 3.5-3.5s3.5 1.6 3.5 3.5-1.6 3.5-3.5 3.5a3.5 3.5 0 0 1-3.5-3.5Zm-14 0c0-1.9 1.6-3.5 3.5-3.5s3.5 1.6 3.5 3.5-1.6 3.5-3.5 3.5a3.5 3.5 0 0 1-3.5-3.5Zm-14 0c0-1.9 1.6-3.5 3.5-3.5s3.5 1.6 3.5 3.5-1.6 3.5-3.5 3.5a3.5 3.5 0 0 1-3.5-3.5Zm-28 0c0-1.9 1.6-3.5 3.5-3.5s3.5 1.6 3.5 3.5-1.6 3.5-3.5 3.5a3.5 3.5 0 0 1-3.5-3.5Zm14 0c0-1.9 1.6-3.5 3.5-3.5s3.5 1.6 3.5 3.5-1.6 3.5-3.5 3.5a3.5 3.5 0 0 1-3.5-3.5Zm-28 0c0-1.9 1.6-3.5 3.5-3.5s3.5 1.6 3.5 3.5-1.6 3.5-3.5 3.5a3.5 3.5 0 0 1-3.5-3.5ZM228.5 242c1.9 0 3.5 1.6 3.5 3.5s-1.6 3.5-3.5 3.5a3.5 3.5 0 0 1-3.5-3.5c0-1.9 1.5-3.5 3.5-3.5Zm0-112c1.9 0 3.5 1.6 3.5 3.5s-1.6 3.5-3.5 3.5a3.5 3.5 0 0 1-3.5-3.5c0-1.9 1.5-3.5 3.5-3.5Zm0 126c1.9 0 3.5 1.6 3.5 3.5s-1.6 3.5-3.5 3.5a3.5 3.5 0 0 1-3.5-3.5c0-1.9 1.5-3.5 3.5-3.5Zm0-112c1.9 0 3.5 1.6 3.5 3.5s-1.6 3.5-3.5 3.5a3.5 3.5 0 0 1-3.5-3.5c0-1.9 1.5-3.5 3.5-3.5Zm0 84c1.9 0 3.5 1.6 3.5 3.5s-1.6 3.5-3.5 3.5a3.5 3.5 0 0 1-3.5-3.5c0-1.9 1.5-3.5 3.5-3.5Zm0-112c1.9 0 3.5 1.6 3.5 3.5s-1.6 3.5-3.5 3.5a3.5 3.5 0 0 1-3.5-3.5c0-1.9 1.5-3.5 3.5-3.5Zm0 98c1.9 0 3.5 1.6 3.5 3.5s-1.6 3.5-3.5 3.5a3.5 3.5 0 0 1-3.5-3.5c0-1.9 1.5-3.5 3.5-3.5Zm0-112c1.9 0 3.5 1.6 3.5 3.5s-1.6 3.5-3.5 3.5a3.5 3.5 0 0 1-3.5-3.5c0-1.9 1.5-3.5 3.5-3.5Zm0 98c1.9 0 3.5 1.6 3.5 3.5s-1.6 3.5-3.5 3.5a3.5 3.5 0 0 1-3.5-3.5c0-1.9 1.5-3.5 3.5-3.5Zm0-112c1.9 0 3.5 1.6 3.5 3.5s-1.6 3.5-3.5 3.5a3.5 3.5 0 0 1-3.5-3.5c0-1.9 1.5-3.5 3.5-3.5Zm0 98c1.9 0 3.5 1.6 3.5 3.5s-1.6 3.5-3.5 3.5a3.5 3.5 0 0 1-3.5-3.5c0-1.9 1.5-3.5 3.5-3.5Zm0-112c1.9 0 3.5 1.6 3.5 3.5s-1.6 3.5-3.5 3.5a3.5 3.5 0 0 1-3.5-3.5c0-1.9 1.5-3.5 3.5-3.5Zm0 98c1.9 0 3.5 1.6 3.5 3.5s-1.6 3.5-3.5 3.5a3.5 3.5 0 0 1-3.5-3.5c0-1.9 1.5-3.5 3.5-3.5Zm0-112c1.9 0 3.5 1.6 3.5 3.5s-1.6 3.5-3.5 3.5a3.5 3.5 0 0 1-3.5-3.5c0-1.9 1.5-3.5 3.5-3.5Zm0 98c1.9 0 3.5 1.6 3.5 3.5s-1.6 3.5-3.5 3.5a3.5 3.5 0 0 1-3.5-3.5c0-1.9 1.5-3.5 3.5-3.5Zm0-112c1.9 0 3.5 1.6 3.5 3.5s-1.6 3.5-3.5 3.5a3.5 3.5 0 0 1-3.5-3.5c0-1.9 1.5-3.5 3.5-3.5Zm0-14c1.9 0 3.5 1.6 3.5 3.5s-1.6 3.5-3.5 3.5a3.5 3.5 0 0 1-3.5-3.5c0-1.9 1.5-3.5 3.5-3.5Zm307 210c1.9 0 3.5 1.6 3.5 3.5s-1.6 3.5-3.5 3.5a3.5 3.5 0 0 1-3.5-3.5c0-1.9 1.5-3.5 3.5-3.5Zm0-112c1.9 0 3.5 1.6 3.5 3.5s-1.6 3.5-3.5 3.5a3.5 3.5 0 0 1-3.5-3.5c0-1.9 1.5-3.5 3.5-3.5Zm0 126c1.9 0 3.5 1.6 3.5 3.5s-1.6 3.5-3.5 3.5a3.5 3.5 0 0 1-3.5-3.5c0-1.9 1.5-3.5 3.5-3.5Zm0-112c1.9 0 3.5 1.6 3.5 3.5s-1.6 3.5-3.5 3.5a3.5 3.5 0 0 1-3.5-3.5c0-1.9 1.5-3.5 3.5-3.5Zm0 84c1.9 0 3.5 1.6 3.5 3.5s-1.6 3.5-3.5 3.5a3.5 3.5 0 0 1-3.5-3.5c0-1.9 1.5-3.5 3.5-3.5Zm0-112c1.9 0 3.5 1.6 3.5 3.5s-1.6 3.5-3.5 3.5a3.5 3.5 0 0 1-3.5-3.5c0-1.9 1.5-3.5 3.5-3.5Zm0 98c1.9 0 3.5 1.6 3.5 3.5s-1.6 3.5-3.5 3.5a3.5 3.5 0 0 1-3.5-3.5c0-1.9 1.5-3.5 3.5-3.5Zm0-112c1.9 0 3.5 1.6 3.5 3.5s-1.6 3.5-3.5 3.5a3.5 3.5 0 0 1-3.5-3.5c0-1.9 1.5-3.5 3.5-3.5Zm0 98c1.9 0 3.5 1.6 3.5 3.5s-1.6 3.5-3.5 3.5a3.5 3.5 0 0 1-3.5-3.5c0-1.9 1.5-3.5 3.5-3.5Zm0-112c1.9 0 3.5 1.6 3.5 3.5s-1.6 3.5-3.5 3.5a3.5 3.5 0 0 1-3.5-3.5c0-1.9 1.5-3.5 3.5-3.5Zm0 98c1.9 0 3.5 1.6 3.5 3.5s-1.6 3.5-3.5 3.5a3.5 3.5 0 0 1-3.5-3.5c0-1.9 1.5-3.5 3.5-3.5Zm0-112c1.9 0 3.5 1.6 3.5 3.5s-1.6 3.5-3.5 3.5a3.5 3.5 0 0 1-3.5-3.5c0-1.9 1.5-3.5 3.5-3.5Zm0 98c1.9 0 3.5 1.6 3.5 3.5s-1.6 3.5-3.5 3.5a3.5 3.5 0 0 1-3.5-3.5c0-1.9 1.5-3.5 3.5-3.5Zm0-112c1.9 0 3.5 1.6 3.5 3.5s-1.6 3.5-3.5 3.5a3.5 3.5 0 0 1-3.5-3.5c0-1.9 1.5-3.5 3.5-3.5Zm0 98c1.9 0 3.5 1.6 3.5 3.5s-1.6 3.5-3.5 3.5a3.5 3.5 0 0 1-3.5-3.5c0-1.9 1.5-3.5 3.5-3.5Zm0-112c1.9 0 3.5 1.6 3.5 3.5s-1.6 3.5-3.5 3.5a3.5 3.5 0 0 1-3.5-3.5c0-1.9 1.5-3.5 3.5-3.5Zm0-14c1.9 0 3.5 1.6 3.5 3.5s-1.6 3.5-3.5 3.5a3.5 3.5 0 0 1-3.5-3.5c0-1.9 1.5-3.5 3.5-3.5Z"/>
    <path fill="#FFF" fill-rule="nonzero" d="M84 276a20 20 0 1 1 0 40 20 20 0 0 1 0-40Zm8 18H76a2 2 0 1 0 0 4h16a2 2 0 1 0 0-4Zm-8-70a20 20 0 1 1 0 40 20 20 0 0 1 0-40Zm0 10a2 2 0 0 0-2 2v6h-6a2 2 0 1 0 0 4h6v6a2 2 0 1 0 4 0v-6h6a2 2 0 1 0 0-4h-6v-6a2 2 0 0 0-2-2Zm0 94a20 20 0 0 0-19.9 18h23.3l-8-7.9a2 2 0 0 1 2.9-2.8l11.3 11.3a2 2 0 0 1 0 2.8l-11.3 11.3a2 2 0 0 1-2.8 0 2 2 0 0 1 0-2.8l7.9-7.9H64a20 20 0 1 0 20-22Zm19.3 88-9.7-9.7a16.5 16.5 0 1 0-3.3 3.3l9.7 9.7a2.4 2.4 0 0 0 3.3 0 2.4 2.4 0 0 0 0-3.3Zm-34.6-19.5a11.8 11.8 0 1 1 24 0 11.8 11.8 0 0 1-24 0Z"/>
    <g transform="translate(152 62)">
      <path fill="#F0F4F5" fill-rule="nonzero" d="M52 16h100v12H52zm0 52h60v12H52z"/>
      <g stroke-width="4">
        <circle cx="20" cy="20" r="18" fill="#FFF" stroke="#212B32" stroke-linejoin="square"/>
        <circle cx="20" cy="20" r="22" stroke="#FFEB3B"/>
      </g>
      <circle cx="20" cy="20" r="10" fill="#212B32"/>
      <circle cx="20" cy="72" r="19" stroke="#F0F4F5" stroke-width="2"/>
      <rect width="117" height="40" x="1" y="108" fill="#FFEB3B" rx="4"/>
      <path fill="#212B32" d="M118 141v3a4 4 0 0 1-4 4H5a4 4 0 0 1-4-4v-3h.1a4 4 0 0 0 3.9 3h109a4 4 0 0 0 3.9-3h.1Z"/>
    </g>
  </g>
</svg>
