<?xml version="1.0" encoding="UTF-8"?>
<svg width="64px" height="64px" viewBox="0 0 64 64" version="1.1" xmlns="http://www.w3.org/2000/svg" xmlns:xlink="http://www.w3.org/1999/xlink">
    <!-- Generator: Sketch 50 (54983) - http://www.bohemiancoding.com/sketch -->
    <title>Group 10</title>
    <desc>Created with Sketch.</desc>
    <defs></defs>
    <g id="NHS-Redesign---Components-v0.1" stroke="none" stroke-width="1" fill="none" fill-rule="evenodd">
        <g id="NHS-Redesign---Callout-Box-Ideas---After-popup-research" transform="translate(-902.000000, -2633.000000)">
            <g id="Group-4" transform="translate(902.000000, 2633.000000)">
                <g id="Group-10">
                    <rect id="Rectangle-3" fill="#212B32" x="0" y="0" width="64" height="64"></rect>
                    <path d="M31.7770251,52 C29.9077536,52 28.3924097,50.5076158 28.3924097,48.6666667 C28.3924097,46.8257175 29.9077536,45.3333333 31.7770251,45.3333333 C33.6462966,45.3333333 35.1616405,46.8257175 35.1616405,48.6666667 C35.1616405,50.5076158 33.6462966,52 31.7770251,52 Z M36.5154866,16.6666667 C36.5224555,17.0158074 36.4768313,17.3640369 36.380102,17.7 L33.8077943,39.3333333 C33.8077943,40.4379028 32.898588,41.3333333 31.7770251,41.3333333 C30.6554622,41.3333333 29.7462559,40.4379028 29.7462559,39.3333333 L27.0385636,17.7 C26.9871455,17.3574167 26.9871455,17.0092499 27.0385636,16.6666667 C27.0385636,14.0893378 29.1600451,12 31.7770251,12 C34.3940052,12 36.5154866,14.0893378 36.5154866,16.6666667 Z" id="Combined-Shape" fill="#FAE200" fill-rule="nonzero"></path>
                </g>
            </g>
        </g>
    </g>
</svg>