<?xml version="1.0" encoding="UTF-8"?>
<svg width="64px" height="64px" viewBox="0 0 64 64" version="1.1" xmlns="http://www.w3.org/2000/svg" xmlns:xlink="http://www.w3.org/1999/xlink">
    <!-- Generator: Sketch 50.2 (55047) - http://www.bohemiancoding.com/sketch -->
    <title>Group 2</title>
    <desc>Created with Sketch.</desc>
    <defs></defs>
    <g id="NHS-Redesign---Components-v0.1" stroke="none" stroke-width="1" fill="none" fill-rule="evenodd">
        <g id="NHS-Redesign---Callout-Box-Ideas-v5" transform="translate(-2024.000000, -1093.000000)">
            <g id="Group-2" transform="translate(2024.000000, 1093.000000)">
                <rect id="Rectangle-3" fill="#FAE200" x="0" y="0" width="64" height="64"></rect>
                <path d="M31.9770251,52 C30.1077536,52 28.5924097,50.5076158 28.5924097,48.6666667 C28.5924097,46.8257175 30.1077536,45.3333333 31.9770251,45.3333333 C33.8462966,45.3333333 35.3616405,46.8257175 35.3616405,48.6666667 C35.3616405,50.5076158 33.8462966,52 31.9770251,52 Z M36.7154866,16.6666667 C36.7224555,17.0158074 36.6768313,17.3640369 36.580102,17.7 L34.0077943,39.3333333 C34.0077943,40.4379028 33.098588,41.3333333 31.9770251,41.3333333 C30.8554622,41.3333333 29.9462559,40.4379028 29.9462559,39.3333333 L27.2385636,17.7 C27.1871455,17.3574167 27.1871455,17.0092499 27.2385636,16.6666667 C27.2385636,14.0893378 29.3600451,12 31.9770251,12 C34.5940052,12 36.7154866,14.0893378 36.7154866,16.6666667 Z" id="Combined-Shape" fill="#212B32" fill-rule="nonzero"></path>
            </g>
        </g>
    </g>
</svg>