<svg id="Layer_1" data-name="Layer 1" xmlns="http://www.w3.org/2000/svg" viewBox="0 0 24 24"><defs><style>.cls-1{fill:#0057ab;}</style></defs><title>Icon-calendar2_v2</title><rect class="cls-1" x="7.1" y="9.9" width="1.4" height="1.4" rx="0.6" ry="0.6"/><rect class="cls-1" x="9.9" y="9.9" width="1.4" height="1.4" rx="0.6" ry="0.6"/><rect class="cls-1" x="12.7" y="9.9" width="1.4" height="1.4" rx="0.6" ry="0.6"/><rect class="cls-1" x="15.5" y="9.9" width="1.4" height="1.4" rx="0.6" ry="0.6"/><rect class="cls-1" x="7.1" y="12.7" width="1.4" height="1.4" rx="0.6" ry="0.6"/><rect class="cls-1" x="9.9" y="12.7" width="1.4" height="1.4" rx="0.6" ry="0.6"/><rect class="cls-1" x="12.7" y="12.7" width="1.4" height="1.4" rx="0.6" ry="0.6"/><rect class="cls-1" x="15.5" y="12.7" width="1.4" height="1.4" rx="0.6" ry="0.6"/><rect class="cls-1" x="7.1" y="15.5" width="1.4" height="1.4" rx="0.6" ry="0.6"/><rect class="cls-1" x="9.9" y="15.5" width="1.4" height="1.4" rx="0.6" ry="0.6"/><rect class="cls-1" x="12.7" y="15.5" width="1.4" height="1.4" rx="0.6" ry="0.6"/><path class="cls-1" d="M18,5H15.5v.66a.7.7,0,1,1-1.4,0V5H9.9v.66a.7.7,0,1,1-1.4,0V5H6.05a1,1,0,0,0-1,1V18a1,1,0,0,0,1,1.05H18A1,1,0,0,0,19,18V6.05A1,1,0,0,0,18,5Zm.35,13a.35.35,0,0,1-.35.35H6.05A.35.35,0,0,1,5.7,18V8.15H18.3Z"/></svg>