<svg id="Layer_1" data-name="Layer 1" xmlns="http://www.w3.org/2000/svg" viewBox="0 0 24 24"><defs><style>.cls-1{fill:#0057ab;}.cls-2{fill:#fff;}</style></defs><title>Icon-calendar2-circle_v2</title><circle class="cls-1" cx="12" cy="12" r="10"/><rect class="cls-2" x="8.5" y="10.5" width="1" height="1" rx="0.5" ry="0.5"/><rect class="cls-2" x="10.5" y="10.5" width="1" height="1" rx="0.5" ry="0.5"/><rect class="cls-2" x="12.5" y="10.5" width="1" height="1" rx="0.5" ry="0.5"/><rect class="cls-2" x="14.5" y="10.5" width="1" height="1" rx="0.5" ry="0.5"/><rect class="cls-2" x="8.5" y="12.5" width="1" height="1" rx="0.5" ry="0.5"/><rect class="cls-2" x="10.5" y="12.5" width="1" height="1" rx="0.5" ry="0.5"/><rect class="cls-2" x="12.5" y="12.5" width="1" height="1" rx="0.5" ry="0.5"/><rect class="cls-2" x="14.5" y="12.5" width="1" height="1" rx="0.5" ry="0.5"/><rect class="cls-2" x="8.5" y="14.5" width="1" height="1" rx="0.5" ry="0.5"/><rect class="cls-2" x="10.5" y="14.5" width="1" height="1" rx="0.5" ry="0.5"/><rect class="cls-2" x="12.5" y="14.5" width="1" height="1" rx="0.5" ry="0.5"/><path class="cls-2" d="M16.25,7H14.5v.47a.5.5,0,0,1-1,0V7h-3v.47a.5.5,0,0,1-1,0V7H7.75A.76.76,0,0,0,7,7.75v8.5a.76.76,0,0,0,.75.75h8.5a.76.76,0,0,0,.75-.75V7.75A.76.76,0,0,0,16.25,7Zm.25,9.25a.25.25,0,0,1-.25.25H7.75a.25.25,0,0,1-.25-.25v-7h9Z"/></svg>