<?xml version="1.0" encoding="UTF-8"?>
<svg width="20px" height="20px" viewBox="0 0 20 20" version="1.1" xmlns="http://www.w3.org/2000/svg" xmlns:xlink="http://www.w3.org/1999/xlink">
    <!-- Generator: Sketch 50.2 (55047) - http://www.bohemiancoding.com/sketch -->
    <title>Icon-arrow1-right-ALT-circle_v2</title>
    <desc>Created with Sketch.</desc>
    <defs></defs>
    <g id="Page-1" stroke="none" stroke-width="1" fill="none" fill-rule="evenodd">
        <g id="Icon-arrow1-right-ALT-circle_v2" transform="translate(-2.000000, -2.000000)">
            <polygon id="Shape" points="0 0 24 0 24 24 0 24"></polygon>
            <path d="M12,2 C6.86434673,1.99993548 2.56356533,5.89008952 2.05,11 L13.69,11 L9.74,7.05 C9.4002232,6.65323972 9.42306773,6.06180583 9.79243678,5.69243678 C10.1618058,5.32306773 10.7532397,5.3002232 11.15,5.64 L16.81,11.29 C16.9993127,11.4777666 17.1057983,11.7333625 17.1057983,12 C17.1057983,12.2666375 16.9993127,12.5222334 16.81,12.71 L11.15,18.36 C10.7599625,18.7477236 10.1300375,18.7477236 9.74,18.36 C9.35227641,17.9699625 9.35227641,17.3400375 9.74,16.95 L13.69,13 L2.05,13 C2.58928848,18.3658527 7.28625274,22.3375518 12.6671192,21.9777144 C18.0479857,21.6178769 22.1742887,17.0561349 21.9943035,11.6662543 C21.8143183,6.27637381 17.3928848,2.00006775 12,2 Z" id="Shape" fill="#007F3B" fill-rule="nonzero"></path>
        </g>
    </g>
</svg>