<svg class="nhsuk-icon nhsuk-icon__user" xmlns="http://www.w3.org/2000/svg" width="34" height="34" viewBox="0 0 34 34" aria-hidden="true" focusable="false">
    <path d="M8.49944 28.8363V26.4015C8.49944 24.9925 9.05915 23.6413 10.0554 22.645C11.0517 21.6487 12.403 21.089 13.8119 21.089H20.1869C20.8846 21.089 21.5754 21.2264 22.2199 21.4934C22.8645 21.7604 23.4501 22.1517 23.9434 22.645C24.4368 23.1383 24.8281 23.724 25.095 24.3685C25.362 25.013 25.4994 25.7039 25.4994 26.4015V28.8371C29.1768 26.192 31.5714 21.8757 31.5714 17C31.5714 8.95242 25.0476 2.42857 17 2.42857C8.95242 2.42857 2.42857 8.95242 2.42857 17C2.42857 21.8752 4.82273 26.1912 8.49944 28.8363ZM34 17C34 26.3888 26.3888 34 17 34C7.61116 34 0 26.3888 0 17C0 7.61116 7.61116 0 17 0C26.3888 0 34 7.61116 34 17ZM10.6244 12.589C10.6244 16.1675 13.5314 18.964 16.9994 18.964C20.4674 18.964 23.3744 16.1675 23.3744 12.589C23.3744 9.01051 20.4674 6.21401 16.9994 6.21401C13.4209 6.21401 10.6244 9.01051 10.6244 12.589Z"></path>
</svg>