<svg xmlns="http://www.w3.org/2000/svg" viewBox="0 0 214.1 75.1">
  <path fill="#FFF" d="M65.5 9.4h50.8v19.2H65.5z"/>
  <path fill="#1B5EAA" d="M65.2 29h51.4V9H65.3Zm45.5-19a14.3 14.3 0 0 1 5.3.8l-1 3.5a8.7 8.7 0 0 0-4-.8c-1.8 0-3.3.3-3.3 1.7 0 2.4 6.8 1.5 6.8 6.8 0 4.7-4.5 6-8.5 6a19.6 19.6 0 0 1-5.4-1l1-3.5a9 9 0 0 0 4.4 1c1.4 0 3.7-.3 3.7-2 0-2.8-6.8-1.8-6.8-6.7 0-4.4 4-5.7 7.8-5.7Zm-18.3.4L91 17h5.6l1.3-6.6h4.7L99 27.7h-4.7l1.6-7.4h-5.5L89 27.7h-5l3.7-17.3Zm-22.7 0h5.9l3.5 12 2.5-12H86l-3.6 17.3h-5.8l-3.7-12-2.5 12h-4.3Z"/>
  <path fill="#1D1D1B" d="M71.3 37.8a3.7 3.7 0 0 0-2.8 1 4 4 0 0 0-1 2.8 3.8 3.8 0 0 0 1 2.7 3.4 3.4 0 0 0 2.6 1.1 4.8 4.8 0 0 0 1.4-.1v-2.8h-2.3v-1.7h4.3v5.7a12.7 12.7 0 0 1-3.4.6 6.3 6.3 0 0 1-4.2-1.3 4.8 4.8 0 0 1-1.6-4q0-5.6 5.8-5.7a10.3 10.3 0 0 1 3.1.4l-.1 1.8a7 7 0 0 0-2.8-.5m5.3 1.3h1.8v1.7a2.5 2.5 0 0 1 .7-1.2 2 2 0 0 1 1.5-.7 3.3 3.3 0 0 1 .6 0v2a2 2 0 0 0-.9 0 1.3 1.3 0 0 0-1 .3 2 2 0 0 0-.5.8 4.3 4.3 0 0 0-.2 1v3.9h-2Zm11.9 7.4a5.3 5.3 0 0 1-2.7.6q-4 0-4.1-4a4.7 4.7 0 0 1 1-3 3.3 3.3 0 0 1 2.6-1.2 3.3 3.3 0 0 1 3 1.3 6.5 6.5 0 0 1 .8 3.4h-5.4a2 2 0 0 0 .6 1.5 2.3 2.3 0 0 0 1.6.5 4 4 0 0 0 1.4-.3 6.6 6.6 0 0 0 1.2-.5ZM87 42.2a2.3 2.3 0 0 0-.4-1.3 1.5 1.5 0 0 0-1.2-.5 1.7 1.7 0 0 0-1.3.5 2.2 2.2 0 0 0-.5 1.3Zm3.9-2.7a7 7 0 0 1 2.7-.6q3.4 0 3.4 3.3v4.7h-1.7a9.8 9.8 0 0 1 0-1.1 2.5 2.5 0 0 1-1 1 2.9 2.9 0 0 1-1.5.3 3.1 3.1 0 0 1-1.9-.6 2 2 0 0 1-.8-1.7 2.4 2.4 0 0 1 .4-1.4 2.2 2.2 0 0 1 1-.8 4.5 4.5 0 0 1 1.2-.4 12.6 12.6 0 0 1 1.3 0h1.2a1.7 1.7 0 0 0-.5-1.4 2 2 0 0 0-1.3-.4 3.9 3.9 0 0 0-2.4.9Zm1.1 5.1a.8.8 0 0 0 .4.7 1.6 1.6 0 0 0 1 .3 1.7 1.7 0 0 0 1.3-.7 2.9 2.9 0 0 0 .5-1.6H94a2.2 2.2 0 0 0-.3 0 3.2 3.2 0 0 0-.8.2 1.3 1.3 0 0 0-.6.4 1 1 0 0 0-.2.7m7.7-4h-1.5V39h1.5v-1.6l2-.7V39h1.8v1.5h-1.8v3.6a1.6 1.6 0 0 0 .2.9.8.8 0 0 0 .8.4 1.7 1.7 0 0 0 .9-.2v1.6a5.3 5.3 0 0 1-1.4.2 2.3 2.3 0 0 1-2.5-2.6Zm9.1 1a5.7 5.7 0 0 1 1.3-4 5.7 5.7 0 0 1 7.8 0 5.6 5.6 0 0 1 1.3 3.9 5.9 5.9 0 0 1-1.3 4 5.6 5.6 0 0 1-7.8 0 5.7 5.7 0 0 1-1.3-4m2.2 0a4.8 4.8 0 0 0 .7 2.6 2.5 2.5 0 0 0 2.3 1.2 2.8 2.8 0 0 0 1.4-.3 2.4 2.4 0 0 0 1-.9 5 5 0 0 0 .6-2.6 5 5 0 0 0-.7-2.6 2.6 2.6 0 0 0-2.3-1.2 2.5 2.5 0 0 0-2.3 1.2 4.7 4.7 0 0 0-.7 2.6m10-2.4h1.8v1.7a2.5 2.5 0 0 1 .7-1.2 2 2 0 0 1 1.5-.7 3.3 3.3 0 0 1 .6 0v2a2 2 0 0 0-.9 0 1.2 1.2 0 0 0-1 .3 1.9 1.9 0 0 0-.4.8 4 4 0 0 0-.2 1v3.9h-2Zm5.8 0h2v1a3 3 0 0 1 1-1 3 3 0 0 1 1.3-.2 2.3 2.3 0 0 1 2.3 1.4 2.3 2.3 0 0 1 1-1 3 3 0 0 1 1.4-.4 2.2 2.2 0 0 1 2 .9 4.2 4.2 0 0 1 .5 2.2v5h-2v-4.8a4 4 0 0 0-.1-1.1 1 1 0 0 0-.4-.5 1.2 1.2 0 0 0-.7-.1 1.1 1.1 0 0 0-.7.2 1.5 1.5 0 0 0-.5.7 3.4 3.4 0 0 0-.2.8 7 7 0 0 0 0 .9v3.8h-2v-4.7a4 4 0 0 0-.2-1.1 1 1 0 0 0-.3-.5 1.3 1.3 0 0 0-.7-.1 1 1 0 0 0-.8.2 1.5 1.5 0 0 0-.5.7 3.4 3.4 0 0 0-.2.8 6.8 6.8 0 0 0 0 .9v3.8h-2Zm13 4a4 4 0 0 1 1.3-3.1 4 4 0 0 1 2.9-1.1 4.1 4.1 0 0 1 2.9 1 4 4 0 0 1 1.2 3.1 4.1 4.1 0 1 1-8.2 0m2.1-.2a3.5 3.5 0 0 0 0 .4v.5a3.5 3.5 0 0 0 .4 1 1.6 1.6 0 0 0 .6.5 1.6 1.6 0 0 0 1 .3 1.8 1.8 0 0 0 1-.3 1.7 1.7 0 0 0 .5-.6 2.4 2.4 0 0 0 .4-.9 6 6 0 0 0 0-1 2.7 2.7 0 0 0-.4-1.6 1.8 1.8 0 0 0-1.5-.7 1.7 1.7 0 0 0-1.5.7 2.7 2.7 0 0 0-.5 1.6m7.7-3.6h1.9v1a3 3 0 0 1 2.6-1.2 2.4 2.4 0 0 1 2 .8 3.6 3.6 0 0 1 .6 2.3v4.9h-2v-5a2 2 0 0 0-.1-.7 1 1 0 0 0-.4-.6 1.3 1.3 0 0 0-.8-.2 1.3 1.3 0 0 0-.8.3 2 2 0 0 0-.6.6 3.3 3.3 0 0 0-.3.9 4.3 4.3 0 0 0 0 .8v4h-2Zm14.5 7a3 3 0 0 1-2.4 1 2.8 2.8 0 0 1-2.6-1.3 5.9 5.9 0 0 1 0-5.7 3.2 3.2 0 0 1 4.9-.1v-4.5h2v11.4h-2Zm-3.6-3.1a3.8 3.8 0 0 0 .3 1.6 1.8 1.8 0 0 0 .6.6 1.3 1.3 0 0 0 .8.3 1.4 1.4 0 0 0 .9-.3 1.8 1.8 0 0 0 .5-.6 2.9 2.9 0 0 0 .3-.8 5 5 0 0 0 0-.8 3.5 3.5 0 0 0-.3-1.7 1.8 1.8 0 0 0-.6-.6 1.4 1.4 0 0 0-.8-.2 1.4 1.4 0 0 0-1.4.8 3 3 0 0 0-.2.8 4.2 4.2 0 0 0-.1.9m15.6-5.2a2.5 2.5 0 0 0-.6 0 1.4 1.4 0 0 0-.5.3 1.2 1.2 0 0 0-.4.4 1.5 1.5 0 0 0-.2.7.8.8 0 0 0 .2.6 1.9 1.9 0 0 0 .6.4 4.8 4.8 0 0 0 .7.4l.9.3a6 6 0 0 1 .8.4 3 3 0 0 1 .8.6 2.9 2.9 0 0 1 .5.8 3.4 3.4 0 0 1 .2 1.2 2.8 2.8 0 0 1-1.2 2.4 5 5 0 0 1-2.8.8 6.7 6.7 0 0 1-1.4-.1l-1.3-.4.2-1.9a4.9 4.9 0 0 0 2.4.7 2.6 2.6 0 0 0 1.2-.4 1.1 1.1 0 0 0 .6-1 1.2 1.2 0 0 0-.1-.6 1.8 1.8 0 0 0-.6-.5 14.4 14.4 0 0 0-1.6-.7 5 5 0 0 1-.8-.4 4 4 0 0 1-.8-.6 3 3 0 0 1-.5-.8 2.7 2.7 0 0 1-.2-1 2.9 2.9 0 0 1 1.2-2.6 4.5 4.5 0 0 1 2.5-.7 8 8 0 0 1 2.5.4l-.2 1.7a5.6 5.6 0 0 0-2.1-.4m5.4 2.8h-1.5V39h1.5v-1.6l2-.7V39h1.8v1.5h-1.8v3.6a1.7 1.7 0 0 0 .2.9.8.8 0 0 0 .8.4 1.7 1.7 0 0 0 .9-.2v1.6a5.4 5.4 0 0 1-1.4.2 2.3 2.3 0 0 1-2.5-2.6ZM187 39h1.8v1.7a2.5 2.5 0 0 1 .6-1.2 2 2 0 0 1 1.5-.7 3.3 3.3 0 0 1 .6 0v2a2 2 0 0 0-.9-.1 1.2 1.2 0 0 0-1 .3 1.9 1.9 0 0 0-.4.8 4 4 0 0 0-.2 1v4h-2Zm11.8 7.4a5.4 5.4 0 0 1-2.6.6q-4.1 0-4.1-4a4.7 4.7 0 0 1 .9-3 3.3 3.3 0 0 1 2.7-1.2 3.2 3.2 0 0 1 3 1.3 6.5 6.5 0 0 1 .7 3.4H194a2 2 0 0 0 .7 1.5 2.3 2.3 0 0 0 1.5.5 4 4 0 0 0 1.4-.2 7 7 0 0 0 1.2-.6Zm-1.3-4.3a2.3 2.3 0 0 0-.4-1.3 1.5 1.5 0 0 0-1.3-.5 1.7 1.7 0 0 0-1.3.5 2.2 2.2 0 0 0-.5 1.3Zm9.8 4.3a5.3 5.3 0 0 1-2.7.6q-4 0-4-4a4.7 4.7 0 0 1 .8-3 3.3 3.3 0 0 1 2.7-1.2 3.3 3.3 0 0 1 3 1.3 6.5 6.5 0 0 1 .8 3.4h-5.5a2 2 0 0 0 .7 1.5 2.3 2.3 0 0 0 1.6.5 4 4 0 0 0 1.3-.3 6.6 6.6 0 0 0 1.2-.5Zm-1.4-4.3a2.3 2.3 0 0 0-.4-1.3 1.5 1.5 0 0 0-1.2-.5 1.7 1.7 0 0 0-1.3.5 2.2 2.2 0 0 0-.5 1.3Zm4.2-1.6h-1.5V39h1.5v-1.6l2-.7V39h1.8v1.5h-1.8v3.6a1.7 1.7 0 0 0 .2.9.8.8 0 0 0 .8.4 1.7 1.7 0 0 0 1-.2v1.6a5.4 5.4 0 0 1-1.5.2 2.3 2.3 0 0 1-2.5-2.6ZM65.8 51.7h2.1V56h4.3v-4.3h2v10.6h-2v-4.6h-4.3v4.7h-2.1V51.7zM76 58.5a4 4 0 0 1 1.1-3 4.1 4.1 0 0 1 3-1.2 4.2 4.2 0 0 1 2.9 1.1 4.1 4.1 0 0 1-3 7.1 3.9 3.9 0 0 1-4-4m2-.2a3.5 3.5 0 0 0 0 .5c0 .1 0 .3.2.4a3.1 3.1 0 0 0 .3 1 1.8 1.8 0 0 0 .6.5 1.6 1.6 0 0 0 1 .3 1.8 1.8 0 0 0 1-.3 1.6 1.6 0 0 0 .5-.6 2.5 2.5 0 0 0 .3-.8 6 6 0 0 0 .1-1 2.8 2.8 0 0 0-.4-1.7A1.8 1.8 0 0 0 80 56a1.7 1.7 0 0 0-1.4.7 2.6 2.6 0 0 0-.5 1.6m12.3-2a5.9 5.9 0 0 0-.9-.3 5.5 5.5 0 0 0-1 0 1.9 1.9 0 0 0-.7 0 .8.8 0 0 0-.5.8c0 .3.2.5.6.6a4 4 0 0 0 .6.2l.6.2a5.6 5.6 0 0 1 .7.3 2.8 2.8 0 0 1 .5.4 1.8 1.8 0 0 1 .4.7 2.7 2.7 0 0 1 .2.9 2.2 2.2 0 0 1-1 2 4.3 4.3 0 0 1-2.3.6 8.7 8.7 0 0 1-2.3-.4l.1-1.7a4.1 4.1 0 0 0 2 .5 1.9 1.9 0 0 0 .9-.2.8.8 0 0 0 .5-.7.9.9 0 0 0-.2-.5 1.1 1.1 0 0 0-.4-.3L87 59a5.6 5.6 0 0 1-.6-.3 2.5 2.5 0 0 1-.6-.4 1.5 1.5 0 0 1-.4-.6 2 2 0 0 1-.2-.8 2 2 0 0 1 1-1.9 3.8 3.8 0 0 1 2.1-.6 9.2 9.2 0 0 1 1.3.1l1 .2Zm2.1-1.7h2v1.1a2.6 2.6 0 0 1 2.4-1.3 2.9 2.9 0 0 1 2.5 1.2 5.1 5.1 0 0 1 .8 3 5.2 5.2 0 0 1-.8 2.8 2.9 2.9 0 0 1-2.6 1.2 3 3 0 0 1-1.2-.2 3 3 0 0 1-1-.8v4h-2Zm3.9 1.4a1.5 1.5 0 0 0-1.4.8 3.3 3.3 0 0 0-.5 1.7 3.4 3.4 0 0 0 .5 1.7 2 2 0 0 0 .5.6 1.3 1.3 0 0 0 .8.2 1.4 1.4 0 0 0 .9-.2 1.7 1.7 0 0 0 .5-.6 3.3 3.3 0 0 0 .3-.9 6.1 6.1 0 0 0 0-.8 4.3 4.3 0 0 0-.3-1.7 1.6 1.6 0 0 0-.5-.6 1.5 1.5 0 0 0-.8-.2m5.4-4.8h2v2h-2Zm0 3.4h2v7.8h-2Zm4.9 1.5h-1.5v-1.5h1.5V53l2-.6v2.2h1.8V56h-1.8v3.6a1.7 1.7 0 0 0 .2 1 .8.8 0 0 0 .8.3 1.7 1.7 0 0 0 .9-.2v1.6a5.4 5.4 0 0 1-1.5.2 2.3 2.3 0 0 1-2.4-2.5Zm5.6-1a6.8 6.8 0 0 1 2.7-.7q3.4 0 3.4 3.3v4.8h-1.7a9.6 9.6 0 0 1 0-1.2 2.4 2.4 0 0 1-1 1 2.8 2.8 0 0 1-1.5.4 3.2 3.2 0 0 1-1.9-.6 2 2 0 0 1-.8-1.8 2.4 2.4 0 0 1 .4-1.4 2.2 2.2 0 0 1 1-.8 4.3 4.3 0 0 1 1.3-.4 12.5 12.5 0 0 1 1.3 0h1.1a1.7 1.7 0 0 0-.4-1.4 2 2 0 0 0-1.3-.3 3.9 3.9 0 0 0-2.5.8Zm1.1 5a.8.8 0 0 0 .4.8 1.5 1.5 0 0 0 .9.2 1.7 1.7 0 0 0 1.4-.7 2.8 2.8 0 0 0 .4-1.6H115a3 3 0 0 0-.7.2 1.3 1.3 0 0 0-.6.4 1 1 0 0 0-.2.7m7-9h2v11.3h-2zm9.2 5h-1.5v-1.5h1.5v-1a2.7 2.7 0 0 1 .6-2 2.3 2.3 0 0 1 1.9-.7 7.2 7.2 0 0 1 1.4.1l-.1 1.7a1.8 1.8 0 0 0-.4-.2 1.6 1.6 0 0 0-.5 0 .8.8 0 0 0-.7.3 1.7 1.7 0 0 0-.2.9v1h1.8V56h-1.8v6.4h-2Zm4.6 2.5a4 4 0 0 1 1.2-3 4.5 4.5 0 0 1 5.8 0 4.5 4.5 0 0 1 .1 5.8 4.1 4.1 0 0 1-7-2.8m2-.3a3.5 3.5 0 0 0 0 .5l.1.5a2.9 2.9 0 0 0 .3.9 1.7 1.7 0 0 0 .6.6 1.6 1.6 0 0 0 1 .2 1.8 1.8 0 0 0 1-.2 1.6 1.6 0 0 0 .6-.6 2.8 2.8 0 0 0 .3-.9 6 6 0 0 0 0-1 2.8 2.8 0 0 0-.4-1.6 1.8 1.8 0 0 0-1.5-.7 1.7 1.7 0 0 0-1.5.7 2.6 2.6 0 0 0-.5 1.6m7.8-3.7h1.8v1.8a2.4 2.4 0 0 1 .6-1.3 1.9 1.9 0 0 1 1.5-.7 3.3 3.3 0 0 1 .6.1v2a2 2 0 0 0-.9-.2 1.3 1.3 0 0 0-1 .4 2 2 0 0 0-.4.8 4.4 4.4 0 0 0-.2 1v3.9h-2Zm18 7.7a9.3 9.3 0 0 1-2.5.3 6.2 6.2 0 0 1-4.1-1.3 4.8 4.8 0 0 1-1.7-4q.1-5.6 5.8-5.7a7.1 7.1 0 0 1 2.4.5l-.1 1.8a4.6 4.6 0 0 0-1.2-.5 7.3 7.3 0 0 0-1.1 0 3.3 3.3 0 0 0-2.6 1 4 4 0 0 0-1 2.7 3.8 3.8 0 0 0 1 2.7 3.4 3.4 0 0 0 2.7 1.1 6.4 6.4 0 0 0 1.3-.1 3.8 3.8 0 0 0 1-.3Zm1.3-11.3h2v4.7a2.8 2.8 0 0 1 2.5-1.2 2.5 2.5 0 0 1 2 .8 3.7 3.7 0 0 1 .6 2.3v4.9h-2v-5a2 2 0 0 0-.1-.7 1.1 1.1 0 0 0-.4-.6 1.4 1.4 0 0 0-.8-.2 1.4 1.4 0 0 0-.9.3 2 2 0 0 0-.5.6 2.7 2.7 0 0 0-.3.9 4.5 4.5 0 0 0 0 .8v3.8h-2Zm9.4.2h2v2h-2Zm0 3.4h2v7.8h-2ZM177 51h2v11.4h-2zm9.4 10.6a3 3 0 0 1-2.4 1 2.8 2.8 0 0 1-2.6-1.2 5.2 5.2 0 0 1-.7-2.9 5.1 5.1 0 0 1 .7-2.9 3.2 3.2 0 0 1 5 0V51h2v11.4h-2Zm-3.6-3a3.8 3.8 0 0 0 .4 1.6 1.8 1.8 0 0 0 .5.6 1.3 1.3 0 0 0 .8.3 1.4 1.4 0 0 0 .9-.3 1.8 1.8 0 0 0 .5-.6 2.6 2.6 0 0 0 .3-.8 5 5 0 0 0 .1-.8 3.4 3.4 0 0 0-.4-1.7 2 2 0 0 0-.6-.6 1.5 1.5 0 0 0-.8-.2 1.4 1.4 0 0 0-1.4.8 3 3 0 0 0-.2.8 3.6 3.6 0 0 0-.1.9m7.7-4h1.8v1.8a2.4 2.4 0 0 1 .7-1.3 1.9 1.9 0 0 1 1.4-.7 3.3 3.3 0 0 1 .7.1v2a2 2 0 0 0-1-.2 1.3 1.3 0 0 0-.9.4 2 2 0 0 0-.5.8 4.4 4.4 0 0 0-.2 1v3.9h-2Zm11.9 7.4a5.3 5.3 0 0 1-2.7.6c-2.7 0-4-1.4-4.1-4a4.7 4.7 0 0 1 .9-3 3.3 3.3 0 0 1 2.7-1.2 3.2 3.2 0 0 1 3 1.4 6.5 6.5 0 0 1 .8 3.4h-5.4a2 2 0 0 0 .7 1.4 2.3 2.3 0 0 0 1.5.5 3.9 3.9 0 0 0 1.4-.2 6.5 6.5 0 0 0 1.2-.6Zm-1.4-4.3a2.3 2.3 0 0 0-.4-1.3 1.5 1.5 0 0 0-1.3-.5 1.7 1.7 0 0 0-1.3.5 2.3 2.3 0 0 0-.5 1.4Zm3.5-3h2v1a3 3 0 0 1 2.5-1.2 2.4 2.4 0 0 1 2 .8 3.6 3.6 0 0 1 .7 2.3v4.9h-2v-5a2 2 0 0 0-.2-.7 1 1 0 0 0-.4-.6 1.4 1.4 0 0 0-.7-.2 1.4 1.4 0 0 0-1 .3 2 2 0 0 0-.5.6 3 3 0 0 0-.2.9 4.5 4.5 0 0 0-.1.8v3.8h-2Z"/>
  <path fill="#1B5EAA" d="M65.3 68H67l2.7 5.2V68h1.4v7h-1.7l-2.7-5.3V75h-1.4v-7zm7.4 0H74v2.8h2.8v-2.9h1.5V75h-1.5v-3H74v3h-1.4v-7zm9.7 1a1.6 1.6 0 0 0-.4 0 1.1 1.1 0 0 0-.3 0 .8.8 0 0 0-.3.4 1 1 0 0 0-.1.5.5.5 0 0 0 .1.3 1.4 1.4 0 0 0 .4.3 3 3 0 0 0 .5.2l.6.3a3.7 3.7 0 0 1 .5.2 2.2 2.2 0 0 1 .5.4 1.9 1.9 0 0 1 .4.6 2.3 2.3 0 0 1 0 .7 1.8 1.8 0 0 1-.7 1.7 3.3 3.3 0 0 1-2 .5 4.7 4.7 0 0 1-.8 0l-1-.2.2-1.3a3.3 3.3 0 0 0 1.6.5 1.7 1.7 0 0 0 .8-.3.8.8 0 0 0 .3-1.2 1.2 1.2 0 0 0-.3-.3 10 10 0 0 0-1-.4 3.6 3.6 0 0 1-.6-.3 2.6 2.6 0 0 1-.5-.4 1.9 1.9 0 0 1-.4-.5 1.7 1.7 0 0 1-.1-.8 2 2 0 0 1 .7-1.6 3 3 0 0 1 1.7-.5 5.4 5.4 0 0 1 1.7.2l-.1 1.2a4 4 0 0 0-1.4-.3m6-1h4V69h-2.5v1.8h2.4v1.1h-2.4V75h-1.5v-7zm4.7 4.5a2.6 2.6 0 0 1 .8-2 2.7 2.7 0 0 1 1.9-.8 2.8 2.8 0 0 1 2 .8 2.7 2.7 0 0 1-2 4.7 2.6 2.6 0 0 1-2-.8 2.7 2.7 0 0 1-.7-2m1.4 0a1.6 1.6 0 0 0 0 .2 3 3 0 0 0 0 .4 1.9 1.9 0 0 0 .2.5 1.1 1.1 0 0 0 .4.5 1 1 0 0 0 .6.1 1.2 1.2 0 0 0 .7-.1 1.2 1.2 0 0 0 .4-.4 1.9 1.9 0 0 0 .2-.6 4.5 4.5 0 0 0 0-.7 1.8 1.8 0 0 0-.3-1 1.2 1.2 0 0 0-1-.5 1.1 1.1 0 0 0-1 .5 1.8 1.8 0 0 0-.4 1m10.1 2.8h-1.3v-.7a2.1 2.1 0 0 1-1.7.8 1.5 1.5 0 0 1-1.3-.6 2.3 2.3 0 0 1-.5-1.4v-3.3h1.4v2.8a1 1 0 0 0 0 .3 2 2 0 0 0 0 .2 2 2 0 0 0 0 .5.9.9 0 0 0 .4.4.7.7 0 0 0 .5.1 1 1 0 0 0 .6-.2 1.1 1.1 0 0 0 .3-.4 1.4 1.4 0 0 0 .2-.6 3.6 3.6 0 0 0 0-.5v-2.6h1.4Zm1.4-5.2h1.3v.7a2 2 0 0 1 1.7-.8 1.6 1.6 0 0 1 1.3.5 2.4 2.4 0 0 1 .4 1.5V75h-1.3v-3.3a1.2 1.2 0 0 0-.1-.5.7.7 0 0 0-.3-.3 1.1 1.1 0 0 0-1 0 1.4 1.4 0 0 0-.4.4 1.8 1.8 0 0 0-.2.6 2.9 2.9 0 0 0 0 .5V75h-1.4Zm9.6 4.6a2 2 0 0 1-1.6.7 1.9 1.9 0 0 1-1.7-.8 3.9 3.9 0 0 1 0-3.8 2.1 2.1 0 0 1 3.3-.1v-3h1.3V75h-1.3Zm-2.4-2a2.6 2.6 0 0 0 .3 1.1 1 1 0 0 0 .3.4.8.8 0 0 0 .6.2 1 1 0 0 0 .5-.2 1.2 1.2 0 0 0 .4-.4 2 2 0 0 0 .2-.5 2.8 2.8 0 0 0 0-.6 2.3 2.3 0 0 0-.3-1 1.3 1.3 0 0 0-.3-.5 1 1 0 0 0-.6-.1 1 1 0 0 0-.9.5 2.1 2.1 0 0 0-.2.6 2.7 2.7 0 0 0 0 .5m5.4-2.3a4.8 4.8 0 0 1 1.8-.4 2 2 0 0 1 2.3 2.2V75h-1.2a6.6 6.6 0 0 1 0-.8 1.7 1.7 0 0 1-.7.7 2 2 0 0 1-1 .2 2.1 2.1 0 0 1-1.2-.4 1.3 1.3 0 0 1-.6-1 1.6 1.6 0 0 1 .3-1 1.4 1.4 0 0 1 .6-.6 2.8 2.8 0 0 1 .9-.3 7 7 0 0 1 .9 0h.7a1.1 1.1 0 0 0-.3-.8 1.3 1.3 0 0 0-.9-.3 2.7 2.7 0 0 0-1.6.6Zm.7 3.4a.5.5 0 0 0 .3.5 1 1 0 0 0 .6.1 1.1 1.1 0 0 0 1-.4 1.8 1.8 0 0 0 .2-1h-.8a1.1 1.1 0 0 0-.2 0 2 2 0 0 0-.5 0 .9.9 0 0 0-.4.3.8.8 0 0 0-.2.5m5.1-2.7h-1v-1h1v-1l1.4-.5v1.5h1.2v1h-1.2v2.5a1 1 0 0 0 .1.5.5.5 0 0 0 .5.3 1.1 1.1 0 0 0 .6-.1v1a3.5 3.5 0 0 1-1 .2 1.5 1.5 0 0 1-1.6-1.7Zm3.6-3.3h1.3v1.3h-1.3Zm0 2.3h1.3V75h-1.3Zm2.4 2.6a2.6 2.6 0 0 1 .8-2 2.7 2.7 0 0 1 2-.7 2.8 2.8 0 0 1 2 .7 2.8 2.8 0 0 1-4 4 2.7 2.7 0 0 1-.8-2m1.4-.1v.6a1.9 1.9 0 0 0 .3.6 1.1 1.1 0 0 0 .4.4 1 1 0 0 0 .6.2 1.2 1.2 0 0 0 .7-.2 1.1 1.1 0 0 0 .4-.4 1.7 1.7 0 0 0 .2-.6 4.5 4.5 0 0 0 0-.6 1.8 1.8 0 0 0-.3-1 1.2 1.2 0 0 0-1-.5 1.1 1.1 0 0 0-1 .4 1.7 1.7 0 0 0-.3 1.1m5.1-2.5h1.3v.7a2 2 0 0 1 1.7-.8 1.7 1.7 0 0 1 1.4.6 2.4 2.4 0 0 1 .4 1.4V75h-1.4v-3.3a1.2 1.2 0 0 0 0-.5.8.8 0 0 0-.3-.3 1.1 1.1 0 0 0-1.1 0 1.4 1.4 0 0 0-.4.4 1.8 1.8 0 0 0-.2.6 2.9 2.9 0 0 0 0 .5V75h-1.4Zm10.4-.7h-2v-1.2h5.5v1.2h-2v6H147v-6zm3.4.7h1.2V71a1.7 1.7 0 0 1 .4-.9 1.3 1.3 0 0 1 1-.4 2 2 0 0 1 .4 0V71a1.3 1.3 0 0 0-.6 0 .8.8 0 0 0-.6.2 1.3 1.3 0 0 0-.3.5 3 3 0 0 0-.2.7V75h-1.3Zm8.7 5.2h-1.3v-.7a2.1 2.1 0 0 1-1.7.8 1.6 1.6 0 0 1-1.4-.6 2.3 2.3 0 0 1-.4-1.4v-3.3h1.4v2.8a2 2 0 0 0 0 .3v.2a2.6 2.6 0 0 0 0 .5.8.8 0 0 0 .3.4.7.7 0 0 0 .5.1 1 1 0 0 0 .6-.2 1 1 0 0 0 .4-.4 1.8 1.8 0 0 0 .2-.6 3.6 3.6 0 0 0 0-.5v-2.6h1.3Zm4.5-4.1a5.1 5.1 0 0 0-.6-.2 4 4 0 0 0-.6 0 1.4 1.4 0 0 0-.6.1.5.5 0 0 0-.2.5c0 .2 0 .3.3.4a2.8 2.8 0 0 0 .4.1 4.3 4.3 0 0 1 .4.2 3.4 3.4 0 0 1 .5.2 2.1 2.1 0 0 1 .4.2 1.5 1.5 0 0 1 .2.5 1.9 1.9 0 0 1 .1.6 1.4 1.4 0 0 1-.7 1.3 2.8 2.8 0 0 1-1.5.4 6.2 6.2 0 0 1-1.5-.2v-1.2a2.8 2.8 0 0 0 1.4.4 1.3 1.3 0 0 0 .6-.2.5.5 0 0 0 .3-.4.6.6 0 0 0-.1-.4.8.8 0 0 0-.3-.2 8.6 8.6 0 0 0-.8-.2l-.4-.2a1.5 1.5 0 0 1-.4-.3 1 1 0 0 1-.3-.4 1.4 1.4 0 0 1 0-.6 1.4 1.4 0 0 1 .6-1.2 2.6 2.6 0 0 1 1.4-.4 6.6 6.6 0 0 1 .8 0l.7.2Zm1.8-.1h-1v-1h1v-1l1.4-.5v1.5h1.2v1h-1.2v2.5a1 1 0 0 0 .1.5.5.5 0 0 0 .5.3 1.1 1.1 0 0 0 .6-.1v1a3.5 3.5 0 0 1-1 .2 1.5 1.5 0 0 1-1.6-1.7Z"/>
  <path fill="#1D1D1B" d="M36.8 64.6c5.6-.2 10-2.1 10.4-3s.2-3-2.7-2c-1.1.3-1.7.9-2.9 1.2a15 15 0 0 1-6.8.1 19.6 19.6 0 0 1-4.8-2 6 6 0 0 0-1.9-.8c-1.6-.2-2.6 2-1.4 3.3s7.4 3.3 10 3.2Zm13.8-16.8a7.5 7.5 0 0 0 1.2-2.3 10 10 0 0 0 0-3 11.1 11.1 0 0 0-.4-1.8 8.8 8.8 0 0 0-.5-1.5 5.8 5.8 0 0 0-3-2.8 7.6 7.6 0 0 0-6.3.5 5.7 5.7 0 0 0-1.7 1.2 4 4 0 0 0-1 1.7c-.8 2.9-.5 6.5 1.7 8.8a6 6 0 0 0 4 1.7 8 8 0 0 0 1.3-.1 7.3 7.3 0 0 0 2.8-.7 5.3 5.3 0 0 0 2-1.7Zm-5-.6a5 5 0 0 1-1.3 0 3 3 0 0 1-1-.4 4.3 4.3 0 0 1-.6-.4 3.7 3.7 0 0 1-1-2 6.9 6.9 0 0 1-.2-1.8 5.9 5.9 0 0 1 0-.5 3.4 3.4 0 0 1 .2-.7 4 4 0 0 1 1.6-2.1 3.9 3.9 0 0 1 5.1 1.4 4.5 4.5 0 0 1-.2 5.2 3.9 3.9 0 0 1-2.7 1.3Zm-17 4.9a16 16 0 0 0 1.7-.8 9.5 9.5 0 0 0 4.1-5.9 7.4 7.4 0 0 0 0-4.2 8.4 8.4 0 0 0-3-3.8 5 5 0 0 0-4.3-1 8.3 8.3 0 0 0-4.3 1.8 7.7 7.7 0 0 0-2.5 4.7 22 22 0 0 0-.2 1.8 6.3 6.3 0 0 0 0 1.5 7.2 7.2 0 0 0 .7 2 7.9 7.9 0 0 0 3.4 3.3 6.2 6.2 0 0 0 2.4.8 4.5 4.5 0 0 0 2-.2ZM26 49.3a2.6 2.6 0 0 1-1.8-.9 8.7 8.7 0 0 1-.8-1 4.4 4.4 0 0 1-.6-1.9 6.2 6.2 0 0 1 1-4.3 6.3 6.3 0 0 1 2.3-2 1.2 1.2 0 0 1 .2 0 4.3 4.3 0 0 1 3.2.4 4.7 4.7 0 0 1 2.1 3 6.1 6.1 0 0 1 0 1.6 7 7 0 0 1-1 2.8 4.5 4.5 0 0 1-4.6 2.3Z"/>
  <path fill="#1D1D1B" d="M54.8 66c0-.6-.4-1-1-.8l-1.3.8a63.3 63.3 0 0 1-5.8 2.6c-.8.3-2.2.8-3.8 1.2a35.4 35.4 0 0 1-4.7 1c-5.5.8-10.7-1.4-14.7-3.1A25.6 25.6 0 0 1 19 65a23 23 0 0 1-3.3-2.8 2.7 2.7 0 0 0 .2-1.7 1.4 1.4 0 0 0-.6-1 2.5 2.5 0 0 0-1.9.2 49.6 49.6 0 0 1-2-4 47.9 47.9 0 0 1-1.8-5.2 3.6 3.6 0 0 1 .8.2l.7.2a8 8 0 0 0 .9.3 1 1 0 0 0 .7 0 .8.8 0 0 0 .4-.3.7.7 0 0 0 0-.3c0-.1 0-.9-.9-1.9A7.3 7.3 0 0 0 9 47a35.3 35.3 0 0 1-.4-7s.1-1.8.6-4.5l.3-1.6a25.4 25.4 0 0 1 .5-1.7 21 21 0 0 1 1-2.2 25.7 25.7 0 0 1 1.6-3l1.3-1.6a24.3 24.3 0 0 1 5.6-5 29.4 29.4 0 0 1 5.8-2.6c1-.4 1.8-.5 1.8-.5a16 16 0 0 1 1.6-.3l-.1.4-.1.6v.2c-.3 1-.8 4.3.4 5.5 0 0 .9 1 2.6-.5a5.2 5.2 0 0 0 1.5-3s.4-2.5.7-3.5l.6-2 .2-.8a20.7 20.7 0 0 1 2.5.2 20 20 0 0 1 7 2.2 28.1 28.1 0 0 1 5.8 4c2 1.8 4.1 4.6 4.7 4.4.3 0 .3-1.5.3-2.7a16 16 0 0 0 0-2c-.2-.8-3-3-5.2-4.6a37.5 37.5 0 0 0-6-3.4l-.6-.3a20.4 20.4 0 0 0-2.3-.7c-1-.3-4.4-.7-5.1-.8a377 377 0 0 0 1-3.7 10.2 10.2 0 0 1 .4-1.1 10.7 10.7 0 0 0 .6-2.2 3.3 3.3 0 0 0-.7-2.8 1.7 1.7 0 0 0-1.4-.4 3.2 3.2 0 0 0-2 1.7 24.8 24.8 0 0 0-2.1 5l-1 3.2c-.5 0-3 0-5.6.3h-.1a23 23 0 0 0-8.1 1.8 2.5 2.5 0 0 0-1.2 1.9 1.4 1.4 0 0 0 .5 1.1c.7.5 1.6.4 3.1 0l.4-.2a32.3 32.3 0 0 1 4.9-1.1 44 44 0 0 1 5.3-.4l-.2.4a26.1 26.1 0 0 0-11 3.3 32.7 32.7 0 0 0-8.6 7.4l-.3.3c-1.4 1.6-3 5.3-4 8.8l-.6 2.8a67.4 67.4 0 0 0-.4 2.8 33.3 33.3 0 0 0 .5 8 4.2 4.2 0 0 0-4 2.5l-.2.3c-1.4 2-.8 5-.6 5.9a12.6 12.6 0 0 0 4 5.9 9.4 9.4 0 0 0 5.9 2.3 8.6 8.6 0 0 0 1.7-.2c4 4.5 8 6.3 11.3 7.8s10.2 3.7 13.8 3.3A47 47 0 0 0 48 72a52.5 52.5 0 0 0 6.9-3.4c.2-.2-.1-.6 0-2.6ZM9.5 60.4a3.4 3.4 0 0 1-1.7-.3h-.1A3 3 0 0 1 7 60a5 5 0 0 1-1.9-1.5 6.7 6.7 0 0 1-1.6-3.3 4.2 4.2 0 0 1 .2-2.3 3.4 3.4 0 0 1 .5-.8 2.7 2.7 0 0 1 1.4-.9h.1A46.7 46.7 0 0 0 7.4 56a44.4 44.4 0 0 0 2.1 4.4Z"/>
</svg>