<?xml version="1.0" encoding="UTF-8"?>
<svg width="851px" height="125px" viewBox="0 0 851 125" version="1.1" xmlns="http://www.w3.org/2000/svg" xmlns:xlink="http://www.w3.org/1999/xlink">
    <!-- Generator: Sketch 51.1 (57501) - http://www.bohemiancoding.com/sketch -->
    <title>+</title>
    <desc>Created with Sketch.</desc>
    <defs>
        <polygon id="path-1" points="0.220727586 0.454090909 56.8931414 0.454090909 56.8931414 59.4309545 0.220727586 59.4309545"></polygon>
        <polygon id="path-3" points="0.220924138 0.333065053 56.8932069 0.333065053 56.8932069 57.9648457 0.220924138 57.9648457"></polygon>
        <polygon id="path-5" points="0.596771591 0.454090909 58.5910898 0.454090909 58.5910898 59.4309545 0.596771591 59.4309545"></polygon>
        <polygon id="path-7" points="0.559092045 0.454090909 58.5534102 0.454090909 58.5534102 59.4309545 0.559092045 59.4309545"></polygon>
        <polygon id="path-9" points="0.52215 0.454090909 58.5164682 0.454090909 58.5164682 59.4309545 0.52215 59.4309545"></polygon>
        <polygon id="path-11" points="0.485140909 0.454090909 58.4794591 0.454090909 58.4794591 59.4309545 0.485140909 59.4309545"></polygon>
        <polygon id="path-13" points="0 0.454090909 56.6723483 0.454090909 56.6723483 59.4309545 0 59.4309545"></polygon>
        <polygon id="path-15" points="0.633445455 0.454090909 58.6277636 0.454090909 58.6277636 59.4309545 0.633445455 59.4309545"></polygon>
        <polygon id="path-17" points="0.374180682 0.454090909 58.3684989 0.454090909 58.3684989 59.4309545 0.374180682 59.4309545"></polygon>
        <polygon id="path-19" points="0.337506818 0.454090909 58.331825 0.454090909 58.331825 59.4309545 0.337506818 59.4309545"></polygon>
        <polygon id="path-21" points="0.292993103 0.454090909 56.9654069 0.454090909 56.9654069 59.4309545 0.292993103 59.4309545"></polygon>
        <polygon id="path-23" points="0.256827586 0.454090909 56.9292414 0.454090909 56.9292414 59.4309545 0.256827586 59.4309545"></polygon>
        <polygon id="path-25" points="0.448131818 0.454090909 58.44245 0.454090909 58.44245 59.4309545 0.448131818 59.4309545"></polygon>
        <polygon id="path-27" points="0.411122727 0.454090909 58.4054409 0.454090909 58.4054409 59.4309545 0.411122727 59.4309545"></polygon>
    </defs>
    <g id="📱Comps" stroke="none" stroke-width="1" fill="none" fill-rule="evenodd">
        <g id="+">
            <g id="Group-3" transform="translate(794.000000, 0.000000)">
                <mask id="mask-2" fill="white">
                    <use xlink:href="#path-1"></use>
                </mask>
                <g id="Clip-2"></g>
                <path d="M51.4519345,24.2798182 L33.9981414,24.2798182 L33.9981414,6.11618182 C33.9981414,3.00163636 31.5497621,0.453681818 28.5569345,0.453681818 C25.5641069,0.453681818 23.1157276,3.00163636 23.1157276,6.11618182 L23.1157276,24.2798182 L5.66193448,24.2798182 C2.6691069,24.2798182 0.220727586,26.8277727 0.220727586,29.9423182 C0.220727586,33.0568636 2.6691069,35.6048182 5.66193448,35.6048182 L23.1157276,35.6048182 L23.1157276,53.7684545 C23.1157276,56.883 25.5641069,59.4309545 28.5569345,59.4309545 C31.5497621,59.4309545 33.9981414,56.883 33.9981414,53.7684545 L33.9981414,35.6048182 L51.4519345,35.6048182 C54.4447621,35.6048182 56.8931414,33.0568636 56.8931414,29.9423182 C56.8931414,26.8277727 54.4447621,24.2798182 51.4519345,24.2798182" id="Fill-1" fill="#78BE20" mask="url(#mask-2)"></path>
            </g>
            <g id="Group-6" transform="translate(794.000000, 67.000000)">
                <mask id="mask-4" fill="white">
                    <use xlink:href="#path-3"></use>
                </mask>
                <g id="Clip-5"></g>
                <path d="M5.66213103,23.6156382 L23.1159241,23.6156382 L23.1159241,5.86638225 C23.1159241,2.82289123 25.5643034,0.333065053 28.557131,0.333065053 C31.5499586,0.333065053 33.9983379,2.82289123 33.9983379,5.86638225 L33.9983379,23.6156382 L51.452131,23.6156382 C54.4449586,23.6156382 56.8933379,26.1054643 56.8933379,29.1489554 C56.8933379,32.1924464 54.4449586,34.6822726 51.452131,34.6822726 L33.9983379,34.6822726 L33.9983379,52.4315285 C33.9983379,55.4750195 31.5499586,57.9648457 28.557131,57.9648457 C25.5643034,57.9648457 23.1159241,55.4750195 23.1159241,52.4315285 L23.1159241,34.6822726 L5.66213103,34.6822726 C2.66930345,34.6822726 0.220924138,32.1924464 0.220924138,29.1489554 C0.220924138,26.1054643 2.66930345,23.6156382 5.66213103,23.6156382" id="Fill-4" fill="#005EB8" mask="url(#mask-4)"></path>
            </g>
            <g id="Group-9" transform="translate(131.000000, 0.000000)">
                <mask id="mask-6" fill="white">
                    <use xlink:href="#path-5"></use>
                </mask>
                <g id="Clip-8"></g>
            </g>
            <g id="Group-12" transform="translate(198.000000, 0.000000)">
                <mask id="mask-8" fill="white">
                    <use xlink:href="#path-7"></use>
                </mask>
                <g id="Clip-11"></g>
                <path d="M52.9852852,24.2798182 L35.1250466,24.2798182 L35.1250466,6.11618182 C35.1250466,3.00163636 32.6188875,0.453681818 29.5562511,0.453681818 C26.4936148,0.453681818 23.9881261,3.00163636 23.9881261,6.11618182 L23.9881261,24.2798182 L6.1278875,24.2798182 C3.06458068,24.2798182 0.559092045,26.8277727 0.559092045,29.9423182 C0.559092045,33.0568636 3.06458068,35.6048182 6.1278875,35.6048182 L23.9881261,35.6048182 L23.9881261,53.7684545 C23.9881261,56.883 26.4936148,59.4309545 29.5562511,59.4309545 C32.6188875,59.4309545 35.1250466,56.883 35.1250466,53.7684545 L35.1250466,35.6048182 L52.9852852,35.6048182 C56.0479216,35.6048182 58.5534102,33.0568636 58.5534102,29.9423182 C58.5534102,26.8277727 56.0479216,24.2798182 52.9852852,24.2798182" id="Fill-10" fill="#AE2573" mask="url(#mask-8)"></path>
            </g>
            <g id="Group-15" transform="translate(264.000000, 0.000000)">
                <mask id="mask-10" fill="white">
                    <use xlink:href="#path-9"></use>
                </mask>
                <g id="Clip-14"></g>
            </g>
            <g id="Group-18" transform="translate(331.000000, 0.000000)">
                <mask id="mask-12" fill="white">
                    <use xlink:href="#path-11"></use>
                </mask>
                <g id="Clip-17"></g>
                <path d="M52.9113341,24.2798182 L35.050425,24.2798182 L35.050425,6.11618182 C35.050425,3.00163636 32.5449364,0.453681818 29.4823,0.453681818 C26.4196636,0.453681818 23.914175,3.00163636 23.914175,6.11618182 L23.914175,24.2798182 L6.05326591,24.2798182 C2.99062955,24.2798182 0.485140909,26.8277727 0.485140909,29.9423182 C0.485140909,33.0568636 2.99062955,35.6048182 6.05326591,35.6048182 L23.914175,35.6048182 L23.914175,53.7684545 C23.914175,56.883 26.4196636,59.4309545 29.4823,59.4309545 C32.5449364,59.4309545 35.050425,56.883 35.050425,53.7684545 L35.050425,35.6048182 L52.9113341,35.6048182 C55.9739705,35.6048182 58.4794591,33.0568636 58.4794591,29.9423182 C58.4794591,26.8277727 55.9739705,24.2798182 52.9113341,24.2798182" id="Fill-16" fill="#005EB8" mask="url(#mask-12)"></path>
            </g>
            <g id="Group-21">
                <mask id="mask-14" fill="white">
                    <use xlink:href="#path-13"></use>
                </mask>
                <g id="Clip-20"></g>
                <path d="M51.2311414,24.2798182 L33.7773483,24.2798182 L33.7773483,6.11618182 C33.7773483,3.00163636 31.328969,0.453681818 28.3361414,0.453681818 C25.3433138,0.453681818 22.8949345,3.00163636 22.8949345,6.11618182 L22.8949345,24.2798182 L5.44114138,24.2798182 C2.44831379,24.2798182 -6.55172414e-05,26.8277727 -6.55172414e-05,29.9423182 C-6.55172414e-05,33.0568636 2.44831379,35.6048182 5.44114138,35.6048182 L22.8949345,35.6048182 L22.8949345,53.7684545 C22.8949345,56.883 25.3433138,59.4309545 28.3361414,59.4309545 C31.328969,59.4309545 33.7773483,56.883 33.7773483,53.7684545 L33.7773483,35.6048182 L51.2311414,35.6048182 C54.223969,35.6048182 56.6723483,33.0568636 56.6723483,29.9423182 C56.6723483,26.8277727 54.223969,24.2798182 51.2311414,24.2798182" id="Fill-19" fill="#78BE20" mask="url(#mask-14)"></path>
            </g>
            <g id="Group-24" transform="translate(65.000000, 0.000000)">
                <mask id="mask-16" fill="white">
                    <use xlink:href="#path-15"></use>
                </mask>
                <g id="Clip-23"></g>
            </g>
            <g id="Group-27" transform="translate(530.000000, 0.000000)">
                <mask id="mask-18" fill="white">
                    <use xlink:href="#path-17"></use>
                </mask>
                <g id="Clip-26"></g>
                <path d="M52.8003739,24.2798182 L34.9394648,24.2798182 L34.9394648,6.11618182 C34.9394648,3.00163636 32.4339761,0.453681818 29.3713398,0.453681818 C26.3087034,0.453681818 23.8032148,3.00163636 23.8032148,6.11618182 L23.8032148,24.2798182 L5.94230568,24.2798182 C2.87966932,24.2798182 0.374180682,26.8277727 0.374180682,29.9423182 C0.374180682,33.0568636 2.87966932,35.6048182 5.94230568,35.6048182 L23.8032148,35.6048182 L23.8032148,53.7684545 C23.8032148,56.883 26.3087034,59.4309545 29.3713398,59.4309545 C32.4339761,59.4309545 34.9394648,56.883 34.9394648,53.7684545 L34.9394648,35.6048182 L52.8003739,35.6048182 C55.8630102,35.6048182 58.3684989,33.0568636 58.3684989,29.9423182 C58.3684989,26.8277727 55.8630102,24.2798182 52.8003739,24.2798182" id="Fill-25" fill="#FAE100" mask="url(#mask-18)"></path>
            </g>
            <g id="Group-30" transform="translate(595.000000, 0.000000)">
                <mask id="mask-20" fill="white">
                    <use xlink:href="#path-19"></use>
                </mask>
                <g id="Clip-29"></g>
                <path d="M52.7630295,24.2798182 L34.9027909,24.2798182 L34.9027909,6.11618182 C34.9027909,3.00163636 32.3973023,0.453681818 29.3346659,0.453681818 C26.2720295,0.453681818 23.7658705,3.00163636 23.7658705,6.11618182 L23.7658705,24.2798182 L5.90563182,24.2798182 C2.84299545,24.2798182 0.337506818,26.8277727 0.337506818,29.9423182 C0.337506818,33.0568636 2.84299545,35.6048182 5.90563182,35.6048182 L23.7658705,35.6048182 L23.7658705,53.7684545 C23.7658705,56.883 26.2720295,59.4309545 29.3346659,59.4309545 C32.3973023,59.4309545 34.9027909,56.883 34.9027909,53.7684545 L34.9027909,35.6048182 L52.7630295,35.6048182 C55.8256659,35.6048182 58.331825,33.0568636 58.331825,29.9423182 C58.331825,26.8277727 55.8256659,24.2798182 52.7630295,24.2798182" id="Fill-28" fill="#41B6E6" mask="url(#mask-20)"></path>
            </g>
            <g id="Group-33" transform="translate(660.000000, 0.000000)">
                <mask id="mask-22" fill="white">
                    <use xlink:href="#path-21"></use>
                </mask>
                <g id="Clip-32"></g>
            </g>
            <g id="Group-36" transform="translate(727.000000, 0.000000)">
                <mask id="mask-24" fill="white">
                    <use xlink:href="#path-23"></use>
                </mask>
                <g id="Clip-35"></g>
                <path d="M51.4880345,24.2798182 L34.0342414,24.2798182 L34.0342414,6.11618182 C34.0342414,3.00163636 31.5858621,0.453681818 28.5930345,0.453681818 C25.6002069,0.453681818 23.1518276,3.00163636 23.1518276,6.11618182 L23.1518276,24.2798182 L5.69803448,24.2798182 C2.70586207,24.2798182 0.256827586,26.8277727 0.256827586,29.9423182 C0.256827586,33.0568636 2.70586207,35.6048182 5.69803448,35.6048182 L23.1518276,35.6048182 L23.1518276,53.7684545 C23.1518276,56.883 25.6002069,59.4309545 28.5930345,59.4309545 C31.5858621,59.4309545 34.0342414,56.883 34.0342414,53.7684545 L34.0342414,35.6048182 L51.4880345,35.6048182 C54.4808621,35.6048182 56.9292414,33.0568636 56.9292414,29.9423182 C56.9292414,26.8277727 54.4808621,24.2798182 51.4880345,24.2798182" id="Fill-34" fill="#005EB8" mask="url(#mask-24)"></path>
            </g>
            <g id="Group-39" transform="translate(396.000000, 0.000000)">
                <mask id="mask-26" fill="white">
                    <use xlink:href="#path-25"></use>
                </mask>
                <g id="Clip-38"></g>
                <path d="M52.874325,24.2798182 L35.0134159,24.2798182 L35.0134159,6.11618182 C35.0134159,3.00163636 32.5079273,0.453681818 29.4452909,0.453681818 C26.3826545,0.453681818 23.8771659,3.00163636 23.8771659,6.11618182 L23.8771659,24.2798182 L6.01625682,24.2798182 C2.95362045,24.2798182 0.448131818,26.8277727 0.448131818,29.9423182 C0.448131818,33.0568636 2.95362045,35.6048182 6.01625682,35.6048182 L23.8771659,35.6048182 L23.8771659,53.7684545 C23.8771659,56.883 26.3826545,59.4309545 29.4452909,59.4309545 C32.5079273,59.4309545 35.0134159,56.883 35.0134159,53.7684545 L35.0134159,35.6048182 L52.874325,35.6048182 C55.9369614,35.6048182 58.44245,33.0568636 58.44245,29.9423182 C58.44245,26.8277727 55.9369614,24.2798182 52.874325,24.2798182" id="Fill-37" fill="#78BE20" mask="url(#mask-26)"></path>
            </g>
            <g id="Group-42" transform="translate(461.000000, 0.000000)">
                <mask id="mask-28" fill="white">
                    <use xlink:href="#path-27"></use>
                </mask>
                <g id="Clip-41"></g>
            </g>
            <path d="M535.472659,90.4313295 L553.027341,90.4313295 L553.027341,72.5686705 C553.027341,69.5057341 555.489873,67 558.5,67 C561.510127,67 563.972659,69.5057341 563.972659,72.5686705 L563.972659,90.4313295 L581.527341,90.4313295 C584.537468,90.4313295 587,92.9370636 587,96 C587,99.0629364 584.537468,101.568671 581.527341,101.568671 L563.972659,101.568671 L563.972659,119.431329 C563.972659,122.494266 561.510127,125 558.5,125 C555.489873,125 553.027341,122.494266 553.027341,119.431329 L553.027341,101.568671 L535.472659,101.568671 C532.462532,101.568671 530,99.0629364 530,96 C530,92.9370636 532.462532,90.4313295 535.472659,90.4313295" id="Fill-45" fill="#41B6E6"></path>
            <path d="M468.472659,90.4313295 L486.027341,90.4313295 L486.027341,72.5686705 C486.027341,69.5057341 488.489873,67 491.5,67 C494.510127,67 496.972659,69.5057341 496.972659,72.5686705 L496.972659,90.4313295 L514.527341,90.4313295 C517.537468,90.4313295 520,92.9370636 520,96 C520,99.0629364 517.537468,101.568671 514.527341,101.568671 L496.972659,101.568671 L496.972659,119.431329 C496.972659,122.494266 494.510127,125 491.5,125 C488.489873,125 486.027341,122.494266 486.027341,119.431329 L486.027341,101.568671 L468.472659,101.568671 C465.462532,101.568671 463,99.0629364 463,96 C463,92.9370636 465.462532,90.4313295 468.472659,90.4313295" id="Fill-47" fill="#FFB81C"></path>
            <path d="M401.472659,90.4313295 L419.027341,90.4313295 L419.027341,72.5686705 C419.027341,69.5057341 421.489873,67 424.5,67 C427.510127,67 429.972659,69.5057341 429.972659,72.5686705 L429.972659,90.4313295 L447.527341,90.4313295 C450.537468,90.4313295 453,92.9370636 453,96 C453,99.0629364 450.537468,101.568671 447.527341,101.568671 L429.972659,101.568671 L429.972659,119.431329 C429.972659,122.494266 427.510127,125 424.5,125 C421.489873,125 419.027341,122.494266 419.027341,119.431329 L419.027341,101.568671 L401.472659,101.568671 C398.462532,101.568671 396,99.0629364 396,96 C396,92.9370636 398.462532,90.4313295 401.472659,90.4313295" id="Fill-49" fill="#005EB8"></path>
            <path d="M665.473318,90.4313295 L683.027341,90.4313295 L683.027341,72.5686705 C683.027341,69.5057341 685.490532,67 688.500659,67 C691.510786,67 693.973318,69.5057341 693.973318,72.5686705 L693.973318,90.4313295 L711.527341,90.4313295 C714.537468,90.4313295 717.000659,92.9370636 717,96 C717,99.0629364 714.537468,101.568671 711.527341,101.568671 L693.973318,101.568671 L693.973318,119.431329 C693.973318,122.494266 691.510127,125 688.5,125 C685.489873,125 683.027341,122.494266 683.027341,119.431329 L683.027341,101.568671 L665.473318,101.568671 C662.463191,101.568671 660,99.0629364 660,96 C660.000659,92.9370636 662.463191,90.4313295 665.473318,90.4313295" id="Fill-53" fill="#AE2573"></path>
            <path d="M203.473318,90.4313295 L221.027341,90.4313295 L221.027341,72.5686705 C221.027341,69.5057341 223.489873,67 226.5,67 C229.510127,67 231.973318,69.5057341 231.973318,72.5686705 L231.973318,90.4313295 L249.527341,90.4313295 C252.537468,90.4313295 255,92.9370636 255,96 C255,99.0629364 252.537468,101.568671 249.527341,101.568671 L231.973318,101.568671 L231.973318,119.431329 C231.973318,122.494266 229.510127,125 226.5,125 C223.489873,125 221.027341,122.494266 221.027341,119.431329 L221.027341,101.568671 L203.473318,101.568671 C200.463191,101.568671 198,99.0629364 198,96 C198,92.9370636 200.463191,90.4313295 203.473318,90.4313295" id="Fill-55" fill="#FAE100"></path>
            <path d="M138.472659,90.4313295 L156.026682,90.4313295 L156.026682,72.5686705 C156.026682,69.5057341 158.489873,67 161.5,67 C164.510127,67 166.972659,69.5057341 166.972659,72.5686705 L166.972659,90.4313295 L184.526682,90.4313295 C187.536809,90.4313295 190,92.9370636 190,96 C189.999341,99.0629364 187.536809,101.568671 184.526682,101.568671 L166.972659,101.568671 L166.972659,119.431329 C166.972659,122.494266 164.509468,125 161.499341,125 C158.489214,125 156.026682,122.494266 156.026682,119.431329 L156.026682,101.568671 L138.472659,101.568671 C135.462532,101.568671 132.999341,99.0629364 133,96 C133,92.9370636 135.462532,90.4313295 138.472659,90.4313295" id="Fill-57" fill="#41B6E6"></path>
            <path d="M70.472659,90.4313295 L88.027341,90.4313295 L88.027341,72.5686705 C88.027341,69.5057341 90.4898728,67 93.5,67 C96.5101272,67 98.972659,69.5057341 98.972659,72.5686705 L98.972659,90.4313295 L116.527341,90.4313295 C119.537468,90.4313295 122,92.9370636 122,96 C122,99.0629364 119.536809,101.568671 116.526682,101.568671 L98.972659,101.568671 L98.972659,119.431329 C98.972659,122.494266 96.5101272,125 93.5,125 C90.4898728,125 88.0266821,122.494266 88.0266821,119.431329 L88.0266821,101.568671 L70.472659,101.568671 C67.4625318,101.568671 65,99.0629364 65,96 C65,92.9370636 67.4625318,90.4313295 70.472659,90.4313295" id="Fill-59" fill="#FFB81C"></path>
            <path d="M5.47265896,90.4313295 L23.027341,90.4313295 L23.027341,72.5686705 C23.027341,69.5057341 25.4898728,67 28.5,67 C31.5101272,67 33.972659,69.5057341 33.972659,72.5686705 L33.972659,90.4313295 L51.527341,90.4313295 C54.5374682,90.4313295 57,92.9370636 57,96 C57,99.0629364 54.5374682,101.568671 51.527341,101.568671 L33.972659,101.568671 L33.972659,119.431329 C33.972659,122.494266 31.5101272,125 28.5,125 C25.4898728,125 23.027341,122.494266 23.027341,119.431329 L23.027341,101.568671 L5.47265896,101.568671 C2.46253179,101.568671 0,99.0629364 0,96 C0,92.9370636 2.46253179,90.4313295 5.47265896,90.4313295" id="Fill-61" fill="#005EB8"></path>
        </g>
    </g>
</svg>