<?xml version="1.0" encoding="UTF-8"?>
<svg width="1633px" height="616px" viewBox="0 0 1633 616" version="1.1" xmlns="http://www.w3.org/2000/svg" xmlns:xlink="http://www.w3.org/1999/xlink">
    <!-- Generator: Sketch 51.1 (57501) - http://www.bohemiancoding.com/sketch -->
    <title>+</title>
    <desc>Created with Sketch.</desc>
    <defs>
        <polygon id="path-1" points="0.429837931 0.847248252 110.791907 0.847248252 110.791907 110.886986 0.429837931 110.886986"></polygon>
        <polygon id="path-3" points="0.43022069 0.636623267 110.792034 0.636623267 110.792034 110.79448 0.43022069 110.79448"></polygon>
        <polygon id="path-5" points="0.18361789 0.847248252 110.224119 0.847248252 110.224119 110.886986 0.18361789 110.886986"></polygon>
        <polygon id="path-7" points="0.112123368 0.847248252 110.152625 0.847248252 110.152625 110.886986 0.112123368 110.886986"></polygon>
        <polygon id="path-9" points="0.112123368 0.847248252 110.152625 0.847248252 110.152625 110.886986 0.112123368 110.886986"></polygon>
        <polygon id="path-11" points="0.0420282051 0.847248252 110.082529 0.847248252 110.082529 110.886986 0.0420282051 110.886986"></polygon>
        <polygon id="path-13" points="0.920523776 0.847248252 110.961025 0.847248252 110.961025 110.886986 0.920523776 110.886986"></polygon>
        <polygon id="path-15" points="0 0.847248252 110.361941 0.847248252 110.361941 110.886986 0 110.886986"></polygon>
        <polygon id="path-17" points="0.0479002841 0.847248252 110.292396 0.847248252 110.292396 110.886986 0.0479002841 110.886986"></polygon>
        <polygon id="path-19" points="0.711300036 0.847248252 110.955796 0.847248252 110.955796 110.886986 0.711300036 110.886986"></polygon>
        <polygon id="path-21" points="0.64158473 0.847248252 110.88608 0.847248252 110.88608 110.886986 0.64158473 110.886986"></polygon>
        <polygon id="path-23" points="0.570565517 0.847248252 110.932634 0.847248252 110.932634 110.886986 0.570565517 110.886986"></polygon>
        <polygon id="path-25" points="0.500137931 0.847248252 110.862207 0.847248252 110.862207 110.886986 0.500137931 110.886986"></polygon>
        <polygon id="path-27" points="0.850301399 0.847248252 110.890803 0.847248252 110.890803 110.886986 0.850301399 110.886986"></polygon>
        <polygon id="path-29" points="0.780079021 0.847248252 110.82058 0.847248252 110.82058 110.886986 0.780079021 110.886986"></polygon>
        <polygon id="path-31" points="0.112123368 0.847248252 110.152625 0.847248252 110.152625 110.886986 0.112123368 110.886986"></polygon>
    </defs>
    <g id="📱Comps" stroke="none" stroke-width="1" fill="none" fill-rule="evenodd">
        <g id="+">
            <g id="Group-3" transform="translate(1522.000000, 377.000000)">
                <mask id="mask-2" fill="white">
                    <use xlink:href="#path-1"></use>
                </mask>
                <g id="Clip-2"></g>
                <path d="M100.195872,45.3015753 L66.2069069,45.3015753 L66.2069069,11.4116452 C66.2069069,5.60048904 61.4390103,0.846484965 55.6108724,0.846484965 C49.7827345,0.846484965 45.0148379,5.60048904 45.0148379,11.4116452 L45.0148379,45.3015753 L11.0258724,45.3015753 C5.19773448,45.3015753 0.429837931,50.0555794 0.429837931,55.8667355 C0.429837931,61.6778917 5.19773448,66.4318958 11.0258724,66.4318958 L45.0148379,66.4318958 L45.0148379,100.321826 C45.0148379,106.132982 49.7827345,110.886986 55.6108724,110.886986 C61.4390103,110.886986 66.2069069,106.132982 66.2069069,100.321826 L66.2069069,66.4318958 L100.195872,66.4318958 C106.02401,66.4318958 110.791907,61.6778917 110.791907,55.8667355 C110.791907,50.0555794 106.02401,45.3015753 100.195872,45.3015753" id="Fill-1" fill="#78BE20" mask="url(#mask-2)"></path>
            </g>
            <g id="Group-6" transform="translate(1522.000000, 505.000000)">
                <mask id="mask-4" fill="white">
                    <use xlink:href="#path-3"></use>
                </mask>
                <g id="Clip-5"></g>
                <path d="M11.0262552,45.1391239 L45.0152207,45.1391239 L45.0152207,11.213051 C45.0152207,5.39569738 49.7831172,0.636623267 55.6112552,0.636623267 C61.4393931,0.636623267 66.2072897,5.39569738 66.2072897,11.213051 L66.2072897,45.1391239 L100.196255,45.1391239 C106.024393,45.1391239 110.79229,49.898198 110.79229,55.7155517 C110.79229,61.5329053 106.024393,66.2919794 100.196255,66.2919794 L66.2072897,66.2919794 L66.2072897,100.218052 C66.2072897,106.035406 61.4393931,110.79448 55.6112552,110.79448 C49.7831172,110.79448 45.0152207,106.035406 45.0152207,100.218052 L45.0152207,66.2919794 L11.0262552,66.2919794 C5.19811724,66.2919794 0.43022069,61.5329053 0.43022069,55.7155517 C0.43022069,49.898198 5.19811724,45.1391239 11.0262552,45.1391239" id="Fill-4" fill="#005EB8" mask="url(#mask-4)"></path>
            </g>
            <g id="Group-9" transform="translate(253.000000, 377.000000)">
                <mask id="mask-6" fill="white">
                    <use xlink:href="#path-5"></use>
                </mask>
                <g id="Clip-8"></g>
            </g>
            <g id="Group-12" transform="translate(381.000000, 377.000000)">
                <mask id="mask-8" fill="white">
                    <use xlink:href="#path-7"></use>
                </mask>
                <g id="Clip-11"></g>
                <path d="M99.5874643,45.3015753 L65.6988064,45.3015753 L65.6988064,11.4116452 C65.6988064,5.60048904 60.9435301,0.846484965 55.132374,0.846484965 C49.3212178,0.846484965 44.5672137,5.60048904 44.5672137,11.4116452 L44.5672137,45.3015753 L10.6785558,45.3015753 C4.86612745,45.3015753 0.112123368,50.0555794 0.112123368,55.8667355 C0.112123368,61.6778917 4.86612745,66.4318958 10.6785558,66.4318958 L44.5672137,66.4318958 L44.5672137,100.321826 C44.5672137,106.132982 49.3212178,110.886986 55.132374,110.886986 C60.9435301,110.886986 65.6988064,106.132982 65.6988064,100.321826 L65.6988064,66.4318958 L99.5874643,66.4318958 C105.39862,66.4318958 110.152625,61.6778917 110.152625,55.8667355 C110.152625,50.0555794 105.39862,45.3015753 99.5874643,45.3015753" id="Fill-10" fill="#AE2573" mask="url(#mask-8)"></path>
            </g>
            <g id="Group-12" transform="translate(506.000000, 252.000000)">
                <mask id="mask-10" fill="white">
                    <use xlink:href="#path-9"></use>
                </mask>
                <g id="Clip-11"></g>
                <path d="M65.6988064,45.3015753 L65.6988064,11.4116452 C65.6988064,5.60048904 60.9435301,0.846484965 55.132374,0.846484965 C49.3212178,0.846484965 44.5672137,5.60048904 44.5672137,11.4116452 L44.5672137,45.3015753 L10.6785558,45.3015753 C4.86612745,45.3015753 0.112123368,50.0555794 0.112123368,55.8667355 C0.112123368,61.6778917 4.86612745,66.4318958 10.6785558,66.4318958 L44.5672137,66.4318958 L44.5672137,100.321826 C44.5672137,106.132982 49.3212178,110.886986 55.132374,110.886986 C60.9435301,110.886986 65.6988064,106.132982 65.6988064,100.321826 L65.6988064,66.4318958 L99.5874643,66.4318958 C105.39862,66.4318958 110.152625,61.6778917 110.152625,55.8667355 C110.152625,50.0555794 105.39862,45.3015753 99.5874643,45.3015753 L65.6988064,45.3015753 Z" id="Fill-10" fill="#78BE20" mask="url(#mask-10)"></path>
            </g>
            <g id="Group-15" transform="translate(509.000000, 377.000000)">
                <mask id="mask-12" fill="white">
                    <use xlink:href="#path-11"></use>
                </mask>
                <g id="Clip-14"></g>
            </g>
            <g id="Group-18" transform="translate(632.000000, 377.000000)">
                <mask id="mask-14" fill="white">
                    <use xlink:href="#path-13"></use>
                </mask>
                <g id="Clip-17"></g>
                <path d="M100.395865,45.3015753 L66.5059346,45.3015753 L66.5059346,11.4116452 C66.5059346,5.60048904 61.7519305,0.846484965 55.9407744,0.846484965 C50.1296182,0.846484965 45.3756141,5.60048904 45.3756141,11.4116452 L45.3756141,45.3015753 L11.485684,45.3015753 C5.67452786,45.3015753 0.920523776,50.0555794 0.920523776,55.8667355 C0.920523776,61.6778917 5.67452786,66.4318958 11.485684,66.4318958 L45.3756141,66.4318958 L45.3756141,100.321826 C45.3756141,106.132982 50.1296182,110.886986 55.9407744,110.886986 C61.7519305,110.886986 66.5059346,106.132982 66.5059346,100.321826 L66.5059346,66.4318958 L100.395865,66.4318958 C106.207021,66.4318958 110.961025,61.6778917 110.961025,55.8667355 C110.961025,50.0555794 106.207021,45.3015753 100.395865,45.3015753" id="Fill-16" fill="#005EB8" mask="url(#mask-14)"></path>
            </g>
            <g id="Group-21" transform="translate(0.000000, 377.000000)">
                <mask id="mask-16" fill="white">
                    <use xlink:href="#path-15"></use>
                </mask>
                <g id="Clip-20"></g>
                <path d="M99.7659069,45.3015753 L65.7769414,45.3015753 L65.7769414,11.4116452 C65.7769414,5.60048904 61.0090448,0.846484965 55.1809069,0.846484965 C49.352769,0.846484965 44.5848724,5.60048904 44.5848724,11.4116452 L44.5848724,45.3015753 L10.5959069,45.3015753 C4.76776897,45.3015753 -0.000127586207,50.0555794 -0.000127586207,55.8667355 C-0.000127586207,61.6778917 4.76776897,66.4318958 10.5959069,66.4318958 L44.5848724,66.4318958 L44.5848724,100.321826 C44.5848724,106.132982 49.352769,110.886986 55.1809069,110.886986 C61.0090448,110.886986 65.7769414,106.132982 65.7769414,100.321826 L65.7769414,66.4318958 L99.7659069,66.4318958 C105.594045,66.4318958 110.361941,61.6778917 110.361941,55.8667355 C110.361941,50.0555794 105.594045,45.3015753 99.7659069,45.3015753" id="Fill-19" fill="#78BE20" mask="url(#mask-16)"></path>
            </g>
            <g id="Group-24" transform="translate(126.000000, 377.000000)">
                <mask id="mask-18" fill="white">
                    <use xlink:href="#path-17"></use>
                </mask>
                <g id="Clip-23"></g>
            </g>
            <g id="Group-27" transform="translate(1013.000000, 377.000000)">
                <mask id="mask-20" fill="white">
                    <use xlink:href="#path-19"></use>
                </mask>
                <g id="Clip-26"></g>
                <path d="M100.37105,45.3015753 L66.418294,45.3015753 L66.418294,11.4116452 C66.418294,5.60048904 61.6554769,0.846484965 55.8335479,0.846484965 C50.0116189,0.846484965 45.2488018,5.60048904 45.2488018,11.4116452 L45.2488018,45.3015753 L11.2960461,45.3015753 C5.47411715,45.3015753 0.711300036,50.0555794 0.711300036,55.8667355 C0.711300036,61.6778917 5.47411715,66.4318958 11.2960461,66.4318958 L45.2488018,66.4318958 L45.2488018,100.321826 C45.2488018,106.132982 50.0116189,110.886986 55.8335479,110.886986 C61.6554769,110.886986 66.418294,106.132982 66.418294,100.321826 L66.418294,66.4318958 L100.37105,66.4318958 C106.192979,66.4318958 110.955796,61.6778917 110.955796,55.8667355 C110.955796,50.0555794 106.192979,45.3015753 100.37105,45.3015753" id="Fill-25" fill="#FAE100" mask="url(#mask-20)"></path>
            </g>
            <g id="Group-30" transform="translate(1141.000000, 377.000000)">
                <mask id="mask-22" fill="white">
                    <use xlink:href="#path-21"></use>
                </mask>
                <g id="Clip-29"></g>
                <path d="M100.30006,45.3015753 L66.3485787,45.3015753 L66.3485787,11.4116452 C66.3485787,5.60048904 61.5857616,0.846484965 55.7638326,0.846484965 C49.9419036,0.846484965 45.177812,5.60048904 45.177812,11.4116452 L45.177812,45.3015753 L11.2263308,45.3015753 C5.40440185,45.3015753 0.64158473,50.0555794 0.64158473,55.8667355 C0.64158473,61.6778917 5.40440185,66.4318958 11.2263308,66.4318958 L45.177812,66.4318958 L45.177812,100.321826 C45.177812,106.132982 49.9419036,110.886986 55.7638326,110.886986 C61.5857616,110.886986 66.3485787,106.132982 66.3485787,100.321826 L66.3485787,66.4318958 L100.30006,66.4318958 C106.121989,66.4318958 110.88608,61.6778917 110.88608,55.8667355 C110.88608,50.0555794 106.121989,45.3015753 100.30006,45.3015753" id="Fill-28" fill="#41B6E6" mask="url(#mask-22)"></path>
            </g>
            <g id="Group-33" transform="translate(1268.000000, 377.000000)">
                <mask id="mask-24" fill="white">
                    <use xlink:href="#path-23"></use>
                </mask>
                <g id="Clip-32"></g>
            </g>
            <g id="Group-36" transform="translate(1394.000000, 377.000000)">
                <mask id="mask-26" fill="white">
                    <use xlink:href="#path-25"></use>
                </mask>
                <g id="Clip-35"></g>
                <path d="M100.266172,45.3015753 L66.2772069,45.3015753 L66.2772069,11.4116452 C66.2772069,5.60048904 61.5093103,0.846484965 55.6811724,0.846484965 C49.8530345,0.846484965 45.0851379,5.60048904 45.0851379,11.4116452 L45.0851379,45.3015753 L11.0961724,45.3015753 C5.26931034,45.3015753 0.500137931,50.0555794 0.500137931,55.8667355 C0.500137931,61.6778917 5.26931034,66.4318958 11.0961724,66.4318958 L45.0851379,66.4318958 L45.0851379,100.321826 C45.0851379,106.132982 49.8530345,110.886986 55.6811724,110.886986 C61.5093103,110.886986 66.2772069,106.132982 66.2772069,100.321826 L66.2772069,66.4318958 L100.266172,66.4318958 C106.09431,66.4318958 110.862207,61.6778917 110.862207,55.8667355 C110.862207,50.0555794 106.09431,45.3015753 100.266172,45.3015753" id="Fill-34" fill="#005EB8" mask="url(#mask-26)"></path>
            </g>
            <g id="Group-39" transform="translate(759.000000, 377.000000)">
                <mask id="mask-28" fill="white">
                    <use xlink:href="#path-27"></use>
                </mask>
                <g id="Clip-38"></g>
                <path d="M100.325642,45.3015753 L66.4357122,45.3015753 L66.4357122,11.4116452 C66.4357122,5.60048904 61.6817082,0.846484965 55.870552,0.846484965 C50.0593958,0.846484965 45.3053917,5.60048904 45.3053917,11.4116452 L45.3053917,45.3015753 L11.4154617,45.3015753 C5.60430548,45.3015753 0.850301399,50.0555794 0.850301399,55.8667355 C0.850301399,61.6778917 5.60430548,66.4318958 11.4154617,66.4318958 L45.3053917,66.4318958 L45.3053917,100.321826 C45.3053917,106.132982 50.0593958,110.886986 55.870552,110.886986 C61.6817082,110.886986 66.4357122,106.132982 66.4357122,100.321826 L66.4357122,66.4318958 L100.325642,66.4318958 C106.136798,66.4318958 110.890803,61.6778917 110.890803,55.8667355 C110.890803,50.0555794 106.136798,45.3015753 100.325642,45.3015753" id="Fill-37" fill="#78BE20" mask="url(#mask-28)"></path>
            </g>
            <g id="Group-42" transform="translate(888.000000, 377.000000)">
                <mask id="mask-30" fill="white">
                    <use xlink:href="#path-29"></use>
                </mask>
                <g id="Clip-41"></g>
            </g>
            <path d="M1025.65728,549.842717 L1059.84272,549.842717 L1059.84272,515.657283 C1059.84272,509.795457 1064.63817,505 1070.5,505 C1076.36183,505 1081.15728,509.795457 1081.15728,515.657283 L1081.15728,549.842717 L1115.34272,549.842717 C1121.20454,549.842717 1126,554.638173 1126,560.5 C1126,566.361827 1121.20454,571.157283 1115.34272,571.157283 L1081.15728,571.157283 L1081.15728,605.342717 C1081.15728,611.204543 1076.36183,616 1070.5,616 C1064.63817,616 1059.84272,611.204543 1059.84272,605.342717 L1059.84272,571.157283 L1025.65728,571.157283 C1019.79546,571.157283 1015,566.361827 1015,560.5 C1015,554.638173 1019.79546,549.842717 1025.65728,549.842717" id="Fill-45" fill="#41B6E6"></path>
            <path d="M899.657283,549.842717 L933.842717,549.842717 L933.842717,515.657283 C933.842717,509.795457 938.638173,505 944.5,505 C950.361827,505 955.157283,509.795457 955.157283,515.657283 L955.157283,549.842717 L989.342717,549.842717 C995.204543,549.842717 1000,554.638173 1000,560.5 C1000,566.361827 995.204543,571.157283 989.342717,571.157283 L955.157283,571.157283 L955.157283,605.342717 C955.157283,611.204543 950.361827,616 944.5,616 C938.638173,616 933.842717,611.204543 933.842717,605.342717 L933.842717,571.157283 L899.657283,571.157283 C893.795457,571.157283 889,566.361827 889,560.5 C889,554.638173 893.795457,549.842717 899.657283,549.842717" id="Fill-47" fill="#FFB81C"></path>
            <path d="M772.657283,549.842717 L806.842717,549.842717 L806.842717,515.657283 C806.842717,509.795457 811.638173,505 817.5,505 C823.361827,505 828.157283,509.795457 828.157283,515.657283 L828.157283,549.842717 L862.342717,549.842717 C868.204543,549.842717 873,554.638173 873,560.5 C873,566.361827 868.204543,571.157283 862.342717,571.157283 L828.157283,571.157283 L828.157283,605.342717 C828.157283,611.204543 823.361827,616 817.5,616 C811.638173,616 806.842717,611.204543 806.842717,605.342717 L806.842717,571.157283 L772.657283,571.157283 C766.795457,571.157283 762,566.361827 762,560.5 C762,554.638173 766.795457,549.842717 772.657283,549.842717" id="Fill-49" fill="#005EB8"></path>
            <path d="M1278.65857,549.842717 L1312.84272,549.842717 L1312.84272,515.657283 C1312.84272,509.795457 1317.63946,505 1323.50128,505 C1329.36311,505 1334.15857,509.795457 1334.15857,515.657283 L1334.15857,549.842717 L1368.34272,549.842717 C1374.20454,549.842717 1379.00128,554.638173 1379,560.5 C1379,566.361827 1374.20454,571.157283 1368.34272,571.157283 L1334.15857,571.157283 L1334.15857,605.342717 C1334.15857,611.204543 1329.36183,616 1323.5,616 C1317.63817,616 1312.84272,611.204543 1312.84272,605.342717 L1312.84272,571.157283 L1278.65857,571.157283 C1272.79674,571.157283 1268,566.361827 1268,560.5 C1268.00128,554.638173 1272.79674,549.842717 1278.65857,549.842717" id="Fill-53" fill="#AE2573"></path>
            <g id="Group-12" transform="translate(381.000000, 0.000000)">
                <mask id="mask-32" fill="white">
                    <use xlink:href="#path-31"></use>
                </mask>
                <g id="Clip-11"></g>
                <path d="M99.5874643,45.3015753 L65.6988064,45.3015753 L65.6988064,11.4116452 C65.6988064,5.60048904 60.9435301,0.846484965 55.132374,0.846484965 C49.3212178,0.846484965 44.5672137,5.60048904 44.5672137,11.4116452 L44.5672137,45.3015753 L10.6785558,45.3015753 C4.86612745,45.3015753 0.112123368,50.0555794 0.112123368,55.8667355 C0.112123368,61.6778917 4.86612745,66.4318958 10.6785558,66.4318958 L44.5672137,66.4318958 L44.5672137,100.321826 C44.5672137,106.132982 49.3212178,110.886986 55.132374,110.886986 C60.9435301,110.886986 65.6988064,106.132982 65.6988064,100.321826 L65.6988064,66.4318958 L99.5874643,66.4318958 C105.39862,66.4318958 110.152625,61.6778917 110.152625,55.8667355 C110.152625,50.0555794 105.39862,45.3015753 99.5874643,45.3015753" id="Fill-10" fill="#005EB8" mask="url(#mask-32)"></path>
            </g>
            <path d="M391.658566,172.842717 L425.842717,172.842717 L425.842717,138.657283 C425.842717,132.795457 430.638173,128 436.5,128 C442.361827,128 447.158566,132.795457 447.158566,138.657283 L447.158566,172.842717 L481.342717,172.842717 C487.204543,172.842717 492,177.638173 492,183.5 C492,189.361827 487.204543,194.157283 481.342717,194.157283 L447.158566,194.157283 L447.158566,228.342717 C447.158566,234.204543 442.361827,239 436.5,239 C430.638173,239 425.842717,234.204543 425.842717,228.342717 L425.842717,194.157283 L391.658566,194.157283 C385.79674,194.157283 381,189.361827 381,183.5 C381,177.638173 385.79674,172.842717 391.658566,172.842717" id="Fill-55" fill="#FAE100"></path>
            <path d="M264.657283,549.842717 L298.841434,549.842717 L298.841434,515.657283 C298.841434,509.795457 303.638174,505 309.5,505 C315.361827,505 320.157283,509.795457 320.157283,515.657283 L320.157283,549.842717 L354.341434,549.842717 C360.20326,549.842717 365,554.638173 365,560.5 C364.998717,566.361827 360.20326,571.157283 354.341434,571.157283 L320.157283,571.157283 L320.157283,605.342717 C320.157283,611.204543 315.360543,616 309.498717,616 C303.63689,616 298.841434,611.204543 298.841434,605.342717 L298.841434,571.157283 L264.657283,571.157283 C258.795457,571.157283 253.998717,566.361827 254,560.5 C254,554.638173 258.795457,549.842717 264.657283,549.842717" id="Fill-57" fill="#41B6E6"></path>
            <path d="M170.842717,549.842717 L170.842717,515.657283 C170.842717,509.795457 175.638173,505 181.5,505 C187.361827,505 192.157283,509.795457 192.157283,515.657283 L192.157283,549.842717 L226.342717,549.842717 C232.204543,549.842717 237,554.638173 237,560.5 C237,566.361827 232.20326,571.157283 226.341434,571.157283 L192.157283,571.157283 L192.157283,605.342717 C192.157283,611.204543 187.361827,616 181.5,616 C175.638173,616 170.841434,611.204543 170.841434,605.342717 L170.841434,571.157283 L136.657283,571.157283 C130.795457,571.157283 126,566.361827 126,560.5 C126,554.638173 130.795457,549.842717 136.657283,549.842717 L170.842717,549.842717 Z" id="Fill-59" fill="#FFB81C"></path>
            <path d="M10.6572832,549.842717 L44.8427168,549.842717 L44.8427168,515.657283 C44.8427168,509.795457 49.6381734,505 55.5,505 C61.3618266,505 66.1572832,509.795457 66.1572832,515.657283 L66.1572832,549.842717 L100.342717,549.842717 C106.204543,549.842717 111,554.638173 111,560.5 C111,566.361827 106.204543,571.157283 100.342717,571.157283 L66.1572832,571.157283 L66.1572832,605.342717 C66.1572832,611.204543 61.3618266,616 55.5,616 C49.6381734,616 44.8427168,611.204543 44.8427168,605.342717 L44.8427168,571.157283 L10.6572832,571.157283 C4.79545665,571.157283 0,566.361827 0,560.5 C0,554.638173 4.79545665,549.842717 10.6572832,549.842717" id="Fill-61" fill="#005EB8"></path>
        </g>
    </g>
</svg>