<?xml version="1.0" encoding="UTF-8"?>
<svg width="40px" height="40px" viewBox="0 0 40 40" version="1.1" xmlns="http://www.w3.org/2000/svg" xmlns:xlink="http://www.w3.org/1999/xlink">
    <!-- Generator: Sketch 51.1 (57501) - http://www.bohemiancoding.com/sketch -->
    <title>Group 15</title>
    <desc>Created with Sketch.</desc>
    <defs></defs>
    <g id="Home-page---Mobile" stroke="none" stroke-width="1" fill="none" fill-rule="evenodd">
        <g id="Homepage---Galaxy-S8---360px-v4-Copy" transform="translate(-16.000000, -1819.000000)">
            <g id="Group-13" transform="translate(0.000000, 564.000000)">
                <g id="Group-19" transform="translate(0.000000, 872.000000)">
                    <g id="Group-15" transform="translate(16.000000, 383.000000)">
                        <rect id="Rectangle" fill="#0058AD" x="0" y="0" width="40" height="40"></rect>
                        <path d="M12.75,20.0608744 L16.4785714,20.0608744 L14.7392857,30 L5,30 L6.46428571,21.6140933 C7.9,13.4163438 12.4392857,10.1254381 19.6178571,10 L19.7142857,13.9144069 C15.4892857,14.3460616 13.0678571,16.5227818 12.75,20.0608744 Z M28.0214286,20.0608744 L31.7464286,20.0608744 L30,30 L20.2714286,30 L21.7357143,21.6140933 C23.1678571,13.4163438 27.7142857,10.1254381 34.8892857,10 L35,13.9144069 C30.7607143,14.3460616 28.3392857,16.5227818 28.0214286,20.0608744 Z" id="Shape" fill="#FFFFFF" fill-rule="nonzero"></path>
                    </g>
                </g>
            </g>
        </g>
    </g>
</svg>