<svg id="Live_text_-_Editable" data-name="Live text - Editable" xmlns="http://www.w3.org/2000/svg" viewBox="0 0 592.18 264.11"><defs><style>.cls-1{fill:#fff;}.cls-2{fill:#2060ad;}.cls-3{fill:#231f20;}</style></defs><title>logo-gosh</title><rect class="cls-1" x="2.45" y="2.9" width="203.28" height="78.69"/><path class="cls-2" d="M203.27,10.07,198.83,23.7a34.85,34.85,0,0,0-15.17-3.13c-7.29,0-13.21,1.07-13.21,6.57,0,9.7,26.71,6.08,26.71,26.87,0,18.92-17.65,23.83-33.61,23.83a77.43,77.43,0,0,1-21.29-3.54l4.34-13.93c3.64,2.36,10.94,3.93,17,3.93,5.72,0,14.68-1.08,14.68-8.14,0-11-26.71-6.87-26.71-26.17,0-17.66,15.58-23,30.66-23,8.48,0,16.46.89,21.09,3M150.34,8.21,136.05,76.65H117.63l6.11-29.31H102L95.83,76.65H77.41L91.71,8.21h18.42l-5.41,26.18H126.5l5.42-26.18Zm-65.43,0L70.33,76.65H47.45L33.07,29.29h-.2L23.31,76.65H6L20.65,8.21h23l14.1,47.46h.19L67.56,8.21ZM211.18,0H0V85H211.18Z"/><path class="cls-3" d="M31.32,135.1H22.44v-6.6H39.36v22.56a52.83,52.83,0,0,1-13.56,2.16c-14.28,0-23-7.44-23-20.94,0-14,8.4-22.38,23-22.38a41.22,41.22,0,0,1,12.24,1.74l-.54,7.08a27.2,27.2,0,0,0-10.8-2.22c-9.36,0-15.18,6.18-15.18,15.18,0,8.82,5.52,14.94,14.28,14.94a22.93,22.93,0,0,0,5.46-.6Z"/><path class="cls-3" d="M47.64,152.5V121.6h7.14v7h.12c.48-3.24,3.84-7.74,8.52-7.74a7.73,7.73,0,0,1,2.4.24v8.1a8.19,8.19,0,0,0-3.6-.66c-3,0-6.54,1.62-6.54,11.22V152.5Z"/><path class="cls-3" d="M94.5,150.76a21.15,21.15,0,0,1-10.56,2.46c-10.26,0-16.2-5.88-16.2-16,0-8.64,4.5-16.32,14.34-16.32,10.5,0,14.7,6.48,14.7,18.66H75.42c.36,4.86,3.66,7.8,8.88,7.8a20.81,20.81,0,0,0,10.2-3.12ZM89.1,134c-.3-4.44-2.4-7.26-6.6-7.26-4,0-6.66,2.64-7.08,7.26Z"/><path class="cls-3" d="M121.92,152.5a36.12,36.12,0,0,1-.36-4.62h-.12a11,11,0,0,1-9.54,5.34c-5.58,0-10.8-3.36-10.8-9.24,0-5.34,3.06-10.56,15.12-10.56h5v-.12c0-5.16-2.64-6.54-7-6.54a16.17,16.17,0,0,0-9.54,3.36l-.24-6.9a27.66,27.66,0,0,1,10.74-2.34c9.24,0,13.32,3.72,13.32,13v6.36c0,1.62.12,8.1.48,12.24Zm-.72-14.28h-3.54c-5.7,0-8.88,1.68-8.88,5.34,0,2.4,1.86,3.78,5.1,3.78,3.6,0,7.32-2.46,7.32-8.76Z"/><path class="cls-3" d="M154.8,152.5a21,21,0,0,1-5.88.72c-6.54,0-9.84-4.08-9.84-10V127.48h-5.94V121.6h5.94v-6.18l8-2.58v8.76h7.14v5.88h-7.14v14.34c0,3.24,1,5.16,3.84,5.16a7.1,7.1,0,0,0,3.6-.84Z"/><path class="cls-3" d="M175.14,131.44c0-13.26,7.62-21.54,20.52-21.54,12.3,0,20.52,8,20.52,21.54s-8,21.78-20.52,21.78C182.7,153.22,175.14,144.82,175.14,131.44Zm32.28,0c0-7.68-3.6-14.94-11.82-14.94-7.56,0-11.7,6.6-11.7,14.94,0,8.88,4.08,15.18,11.76,15.18S207.42,140.26,207.42,131.44Z"/><path class="cls-3" d="M223.32,152.5V121.6h7.14v7h.12c.48-3.24,3.84-7.74,8.52-7.74a7.73,7.73,0,0,1,2.4.24v8.1a8.19,8.19,0,0,0-3.6-.66c-3,0-6.54,1.62-6.54,11.22V152.5Z"/><path class="cls-3" d="M283.68,152.5V133.24c0-4.62-1.74-6.12-4.62-6.12-4.08,0-6,3.78-6,10.26V152.5h-8V133.24c0-4.5-1.62-6.12-4.62-6.12-4.2,0-6,4-6,10.2V152.5h-8V121.6h7.5v4.32H254a10.93,10.93,0,0,1,9.24-5c4.26,0,7.32,1.62,9.06,5.46,1.68-3.42,5.46-5.46,9.72-5.46,6.54,0,9.72,4,9.72,12V152.5Z"/><path class="cls-3" d="M314,153.22c-10,0-16.14-6.84-16.14-16,0-9.9,6.72-16.38,16.14-16.38s16.2,6.42,16.2,16.38C330.18,146.44,323.94,153.22,314,153.22Zm7.8-16.92c0-4.92-2.64-9.18-7.8-9.18s-7.74,4.32-7.74,9.18c0,6.54,2.52,10.68,7.74,10.68S321.78,143,321.78,136.3Z"/><path class="cls-3" d="M356.82,152.5V135.16c0-4.62-1-8-5.22-8-5.1,0-7.08,4.92-7.08,10.38v15h-8V121.6h7.62v4.2h.12c2.46-3.48,5.88-4.92,10.14-4.92,7.08,0,10.5,4.86,10.5,12.12v19.5Z"/><path class="cls-3" d="M393.72,152.5V149h-.12a11.47,11.47,0,0,1-9.48,4.2c-9.42,0-13-7.68-13-16.26,0-9.36,4.08-16.08,13-16.08a11,11,0,0,1,9.24,4.32h.12V107.5h8v45Zm-.3-15.54c0-4.32-2-9.84-7.2-9.84-4.86,0-6.66,5-6.66,9.84,0,4.38,1.56,10,6.78,10S393.42,141.46,393.42,137Z"/><path class="cls-3" d="M427.26,144a20.27,20.27,0,0,0,9.48,2.58c3.06,0,7.44-1.56,7.44-5.4,0-3.18-2.82-4.56-7-6.18-5.58-2.16-11.4-4.5-11.4-12.36,0-9,6.78-12.78,14.7-12.78a31.39,31.39,0,0,1,10,1.5l-.77,6.9a21.74,21.74,0,0,0-8.52-1.8c-3.12,0-6.6,1.44-6.6,5.82,0,3.18,3.6,4.38,7.08,5.76,5.64,2.1,11.27,4.68,11.27,12.48,0,8.1-5.75,12.66-15.77,12.66a37.12,37.12,0,0,1-10.68-1.62Z"/><path class="cls-3" d="M478.2,152.5a21,21,0,0,1-5.88.72c-6.54,0-9.84-4.08-9.84-10V127.48h-5.94V121.6h5.94v-6.18l8-2.58v8.76h7.14v5.88h-7.14v14.34c0,3.24,1,5.16,3.84,5.16a7.1,7.1,0,0,0,3.6-.84Z"/><path class="cls-3" d="M483.36,152.5V121.6h7.14v7h.12c.48-3.24,3.84-7.74,8.52-7.74a7.73,7.73,0,0,1,2.4.24v8.1a8.19,8.19,0,0,0-3.6-.66c-3,0-6.54,1.62-6.54,11.22V152.5Z"/><path class="cls-3" d="M530.22,150.76a21.17,21.17,0,0,1-10.56,2.46c-10.26,0-16.2-5.88-16.2-16,0-8.64,4.5-16.32,14.34-16.32,10.5,0,14.7,6.48,14.7,18.66H511.14c.36,4.86,3.66,7.8,8.87,7.8a20.85,20.85,0,0,0,10.21-3.12ZM524.82,134c-.31-4.44-2.4-7.26-6.6-7.26-4,0-6.66,2.64-7.08,7.26Z"/><path class="cls-3" d="M563.58,150.76A21.15,21.15,0,0,1,553,153.22c-10.26,0-16.2-5.88-16.2-16,0-8.64,4.5-16.32,14.34-16.32,10.5,0,14.69,6.48,14.69,18.66H544.5c.36,4.86,3.66,7.8,8.88,7.8a20.81,20.81,0,0,0,10.2-3.12ZM558.18,134c-.3-4.44-2.4-7.26-6.6-7.26-4,0-6.66,2.64-7.08,7.26Z"/><path class="cls-3" d="M590.52,152.5a21,21,0,0,1-5.88.72c-6.54,0-9.84-4.08-9.84-10V127.48h-5.94V121.6h5.94v-6.18l8-2.58v8.76H590v5.88h-7.14v14.34c0,3.24,1,5.16,3.84,5.16a7.1,7.1,0,0,0,3.6-.84Z"/><path class="cls-3" d="M30.06,213.5V195.14H13.26V213.5H4.86V171.62h8.4v16.92h16.8V171.62h8.4V213.5Z"/><path class="cls-3" d="M61.62,214.22c-10,0-16.14-6.84-16.14-16,0-9.9,6.72-16.38,16.14-16.38s16.2,6.42,16.2,16.38C77.82,207.44,71.58,214.22,61.62,214.22Zm7.8-16.92c0-4.92-2.64-9.18-7.8-9.18s-7.74,4.32-7.74,9.18c0,6.54,2.52,10.68,7.74,10.68S69.42,204,69.42,197.3Z"/><path class="cls-3" d="M82.92,206.3a17.66,17.66,0,0,0,7.92,2c2.16,0,5.28-.84,5.28-3.78,0-2.58-2.52-3.36-5.76-4.26-5.4-1.44-8.22-3.66-8.22-8.82,0-6.24,5.22-9.6,12.18-9.6A35.55,35.55,0,0,1,103,183l-.54,6.06a19.65,19.65,0,0,0-7.14-1.32c-2.82,0-4.8,1.14-4.8,3.42,0,1.74,1.68,2.58,5.34,3.6,5.76,1.62,8.64,4.2,8.64,9.36,0,6.78-5.82,10.08-13,10.08a36.34,36.34,0,0,1-9.06-1.32Z"/><path class="cls-3" d="M110.76,226.1V182.6h7.68V187h.12c2-3.36,5.28-5.1,9.6-5.1,9,0,13,6.9,13,16.08s-3.9,16.26-13.14,16.26a10.53,10.53,0,0,1-9.06-4.26h-.12V226.1Zm22-28.14c0-4.26-1.5-9.84-6.66-9.84s-7.2,5.58-7.2,9.84c0,4.56,1.86,10,7.08,10S132.72,202.34,132.72,198Z"/><path class="cls-3" d="M147.6,177v-7.68h8V177Zm0,36.54V182.6h8v30.9Z"/><path class="cls-3" d="M182.46,213.5a21,21,0,0,1-5.88.72c-6.54,0-9.84-4.08-9.84-10V188.48H160.8V182.6h5.94v-6.18l8-2.58v8.76h7.14v5.88h-7.14v14.34c0,3.24,1,5.16,3.84,5.16a7.1,7.1,0,0,0,3.6-.84Z"/><path class="cls-3" d="M206.28,213.5a36.12,36.12,0,0,1-.36-4.62h-.12a11,11,0,0,1-9.54,5.34c-5.58,0-10.8-3.36-10.8-9.24,0-5.34,3.06-10.56,15.12-10.56h5v-.12c0-5.16-2.64-6.54-7-6.54a16.17,16.17,0,0,0-9.54,3.36l-.24-6.9a27.66,27.66,0,0,1,10.74-2.34c9.24,0,13.32,3.72,13.32,13v6.36c0,1.62.12,8.1.48,12.24Zm-.72-14.28H202c-5.7,0-8.88,1.68-8.88,5.34,0,2.4,1.86,3.78,5.1,3.78,3.6,0,7.32-2.46,7.32-8.76Z"/><path class="cls-3" d="M221,213.5v-45h8v45Z"/><path class="cls-3" d="M257.1,213.5v-25h-5.94V182.6h5.94v-4.38c0-5.22,2.7-10.44,10-10.44a28.64,28.64,0,0,1,5.76.66l-.66,6.66a6.07,6.07,0,0,0-3.48-1.08c-2.34,0-3.54,1.8-3.54,4.74v3.84h7v5.88h-7v25Z"/><path class="cls-3" d="M291.66,214.22c-10,0-16.14-6.84-16.14-16,0-9.9,6.72-16.38,16.14-16.38s16.2,6.42,16.2,16.38C307.86,207.44,301.62,214.22,291.66,214.22Zm7.8-16.92c0-4.92-2.64-9.18-7.8-9.18s-7.74,4.32-7.74,9.18c0,6.54,2.52,10.68,7.74,10.68S299.46,204,299.46,197.3Z"/><path class="cls-3" d="M314.34,213.5V182.6h7.14v7h.12c.48-3.24,3.84-7.74,8.52-7.74a7.73,7.73,0,0,1,2.4.24v8.1a8.19,8.19,0,0,0-3.6-.66c-3,0-6.54,1.62-6.54,11.22V213.5Z"/><path class="cls-3" d="M385.37,212.9a42.9,42.9,0,0,1-9.53,1.32c-14.34,0-23-7.44-23-20.94,0-14.16,8.58-22.38,23-22.38a27.76,27.76,0,0,1,9.47,1.74l-.59,7.08a17.37,17.37,0,0,0-9.06-2.22c-8.46,0-14,6.42-14,15.18s5.52,14.94,14.22,14.94c2.93,0,7-.6,9.17-1.74Z"/><path class="cls-3" d="M411.18,213.5V196c0-5.64-1.68-7.92-5.22-7.92-4.74,0-7.08,4.32-7.08,10.44V213.5h-8v-45h8v18.3H399a11.48,11.48,0,0,1,9.72-4.92c7.13,0,10.49,5,10.49,12.06V213.5Z"/><path class="cls-3" d="M427.68,177v-7.68h8V177Zm0,36.54V182.6h8v30.9Z"/><path class="cls-3" d="M444.36,213.5v-45h8v45Z"/><path class="cls-3" d="M481.43,213.5V210h-.12c-2.39,3-5.69,4.2-9.47,4.2-9.42,0-13-7.68-13-16.26,0-9.36,4.08-16.08,13-16.08a11,11,0,0,1,9.24,4.32h.11V168.5h8v45ZM481.14,198c0-4.32-2.05-9.84-7.2-9.84-4.86,0-6.66,5-6.66,9.84,0,4.38,1.56,10,6.77,10S481.14,202.46,481.14,198Z"/><path class="cls-3" d="M497.69,213.5V182.6h7.15v7H505c.48-3.24,3.84-7.74,8.52-7.74a7.73,7.73,0,0,1,2.4.24v8.1a8.19,8.19,0,0,0-3.6-.66c-3,0-6.54,1.62-6.54,11.22V213.5Z"/><path class="cls-3" d="M544.55,211.76A21.11,21.11,0,0,1,534,214.22c-10.26,0-16.2-5.88-16.2-16,0-8.64,4.5-16.32,14.34-16.32,10.5,0,14.7,6.48,14.7,18.66H525.48c.36,4.86,3.66,7.8,8.87,7.8a20.81,20.81,0,0,0,10.2-3.12ZM539.16,195c-.31-4.44-2.4-7.26-6.61-7.26-4,0-6.65,2.64-7.07,7.26Z"/><path class="cls-3" d="M573.48,213.5V196.16c0-4.62-1-8-5.22-8-5.1,0-7.08,4.92-7.08,10.38v15h-8V182.6h7.62v4.2h.12c2.46-3.48,5.88-4.92,10.14-4.92,7.07,0,10.49,4.86,10.49,12.12v19.5Z"/><path class="cls-2" d="M19.08,263.5,8.4,242.62H8.32V263.5H3V235.58H9.84l10.64,20.88h.08V235.58h5.36V263.5Z"/><path class="cls-2" d="M48.92,263.5V251.26H37.72V263.5h-5.6V235.58h5.6v11.28h11.2V235.58h5.59V263.5Z"/><path class="cls-2" d="M61,257.86a13.52,13.52,0,0,0,6.32,1.72c2,0,5-1,5-3.6,0-2.12-1.88-3-4.64-4.12-3.72-1.44-7.6-3-7.6-8.24,0-6,4.52-8.52,9.8-8.52a21,21,0,0,1,6.64,1L76,240.7a14.49,14.49,0,0,0-5.68-1.2c-2.08,0-4.4,1-4.4,3.88,0,2.12,2.4,2.92,4.72,3.84,3.76,1.4,7.52,3.12,7.52,8.32,0,5.4-3.84,8.44-10.52,8.44a24.74,24.74,0,0,1-7.12-1.08Z"/><path class="cls-2" d="M94.36,263.5V235.58h15.52V240H100v6.88h9.44v4.4H100V263.5Z"/><path class="cls-2" d="M123.32,264c-6.64,0-10.76-4.56-10.76-10.64,0-6.6,4.48-10.92,10.76-10.92s10.8,4.28,10.8,10.92C134.12,259.46,130,264,123.32,264Zm5.2-11.28c0-3.28-1.76-6.12-5.2-6.12s-5.16,2.88-5.16,6.12c0,4.36,1.68,7.12,5.16,7.12S128.52,257.14,128.52,252.7Z"/><path class="cls-2" d="M152.16,263.5v-2.8h-.08a8.58,8.58,0,0,1-6.76,3.28c-4.6,0-7-3.08-7-8.08v-13h5.36v11.76c0,4.12,1.52,5.16,3.48,5.16,3.24,0,4.72-3,4.72-7v-10h5.35v20.6Z"/><path class="cls-2" d="M176.32,263.5V251.94c0-3.08-.64-5.36-3.48-5.36-3.4,0-4.72,3.28-4.72,6.92v10h-5.36V242.9h5.08v2.8h.08a7.7,7.7,0,0,1,6.76-3.28c4.71,0,7,3.24,7,8.08v13Z"/><path class="cls-2" d="M200.91,263.5v-2.32h-.07a7.66,7.66,0,0,1-6.32,2.8c-6.28,0-8.64-5.12-8.64-10.84,0-6.24,2.72-10.72,8.64-10.72a7.32,7.32,0,0,1,6.16,2.88h.08V233.5h5.35v30Zm-.19-10.36c0-2.88-1.37-6.56-4.8-6.56-3.24,0-4.44,3.36-4.44,6.56,0,2.92,1,6.68,4.52,6.68S200.72,256.14,200.72,253.14Z"/><path class="cls-2" d="M224.19,263.5a24.08,24.08,0,0,1-.24-3.08h-.08a7.31,7.31,0,0,1-6.35,3.56c-3.72,0-7.2-2.24-7.2-6.16,0-3.56,2-7,10.07-7h3.32v-.08c0-3.44-1.76-4.36-4.63-4.36a10.78,10.78,0,0,0-6.36,2.24l-.16-4.6a18.44,18.44,0,0,1,7.16-1.56c6.15,0,8.87,2.48,8.87,8.68v4.24c0,1.08.08,5.4.32,8.16Zm-.48-9.52h-2.36c-3.79,0-5.91,1.12-5.91,3.56,0,1.6,1.24,2.52,3.4,2.52,2.39,0,4.87-1.64,4.87-5.84Z"/><path class="cls-2" d="M246.11,263.5a13.92,13.92,0,0,1-3.91.48c-4.36,0-6.56-2.72-6.56-6.68V246.82h-4V242.9h4v-4.12l5.36-1.72v5.84h4.76v3.92H241v9.56c0,2.16.68,3.44,2.55,3.44a4.73,4.73,0,0,0,2.4-.56Z"/><path class="cls-2" d="M249.56,239.14V234h5.36v5.12Zm0,24.36V242.9h5.36v20.6Z"/><path class="cls-2" d="M270,264c-6.63,0-10.75-4.56-10.75-10.64,0-6.6,4.48-10.92,10.75-10.92s10.8,4.28,10.8,10.92C280.79,259.46,276.63,264,270,264Zm5.2-11.28c0-3.28-1.76-6.12-5.2-6.12s-5.15,2.88-5.15,6.12c0,4.36,1.68,7.12,5.15,7.12S275.19,257.14,275.19,252.7Z"/><path class="cls-2" d="M298.55,263.5V251.94c0-3.08-.64-5.36-3.48-5.36-3.39,0-4.72,3.28-4.72,6.92v10H285V242.9h5.08v2.8h.07a7.71,7.71,0,0,1,6.76-3.28c4.72,0,7,3.24,7,8.08v13Z"/><path class="cls-2" d="M326.11,263.5V240h-8v-4.4h21.59V240h-8V263.5Z"/><path class="cls-2" d="M339.24,263.5V242.9H344v4.68h.08c.31-2.16,2.56-5.16,5.67-5.16a5.15,5.15,0,0,1,1.6.16V248a5.46,5.46,0,0,0-2.4-.44c-2,0-4.36,1.08-4.36,7.48v8.48Z"/><path class="cls-2" d="M368.51,263.5v-2.8h-.08a8.58,8.58,0,0,1-6.76,3.28c-4.59,0-7-3.08-7-8.08v-13H360v11.76c0,4.12,1.52,5.16,3.48,5.16,3.24,0,4.72-3,4.72-7v-10h5.36v20.6Z"/><path class="cls-2" d="M378.31,258.7a11.77,11.77,0,0,0,5.28,1.36c1.44,0,3.52-.56,3.52-2.52,0-1.72-1.68-2.24-3.84-2.84-3.59-1-5.47-2.44-5.47-5.88,0-4.16,3.47-6.4,8.11-6.4a23.7,23.7,0,0,1,5.8.76l-.36,4a13.1,13.1,0,0,0-4.76-.88c-1.88,0-3.2.76-3.2,2.28,0,1.16,1.12,1.72,3.56,2.4,3.84,1.08,5.76,2.8,5.76,6.24,0,4.52-3.88,6.72-8.68,6.72a24.15,24.15,0,0,1-6-.88Z"/><path class="cls-2" d="M409.11,263.5a14,14,0,0,1-3.92.48c-4.36,0-6.56-2.72-6.56-6.68V246.82h-3.95V242.9h3.95v-4.12l5.36-1.72v5.84h4.76v3.92H404v9.56c0,2.16.68,3.44,2.56,3.44a4.73,4.73,0,0,0,2.4-.56Z"/></svg>