<svg version="1.1" id="Layer_1" xmlns="http://www.w3.org/2000/svg" xmlns:xlink="http://www.w3.org/1999/xlink" x="0px" y="0px" width="80px" height="80.461px" viewBox="0 0 80 80.461" enable-background="new 0 0 80 80.461" xml:space="preserve">
<g>
	<path fill="#FFFFFF" d="M38.409,13.049V1.752C38.409,0.784,37.625,0,36.703,0l0,0H0.046v1.752h34.121l-6.963,6.963H0.046v1.752   h25.406l-6.963,6.963H0.046v1.752h16.692l-1.383,1.383l0,0l0,0l0,0c-0.323,0.323-0.507,0.784-0.507,1.291   c0,0.184,0.046,0.369,0.092,0.553l0,0l1.291,3.781H0.046v1.752H16.83l2.352,6.963H0.046v1.752h24.392   c0.968,0,1.752,0.784,1.752,1.752v5.21H0.046v1.752h36.611c0.968,0,1.752-0.784,1.752-1.752l0,0V28.772   c0-0.968-0.784-1.752-1.752-1.752l0,0l0,0h-5.256c-0.968,0-1.706-0.784-1.706-1.752c0-0.369,0.138-0.738,0.369-1.061l7.931-10.052   l0,0C38.271,13.833,38.409,13.464,38.409,13.049"/>
	<path fill="#FFFFFF" d="M41.867,27.02c-0.968,0-1.752,0.784-1.752,1.752v14.801c0,0.968,0.738,1.752,1.706,1.752c0,0,0,0,0.046,0   h36.611v-1.752H52.334v-5.21c0-0.968,0.784-1.752,1.752-1.752l0,0h24.392v-1.752H59.389l2.352-6.963h16.784v-1.752H62.34   l1.291-3.781l0,0c0.231-0.599,0.092-1.291-0.369-1.752l0,0l0,0l0,0l-1.383-1.383h16.738v-1.798H60.173l-7.009-6.963h25.406V8.715   H51.412l-7.055-6.963h34.121V0H41.867c-0.968,0-1.752,0.784-1.752,1.752l0,0v11.297c0,0.369,0.138,0.784,0.415,1.061h-0.046   l8.069,10.19c0.184,0.277,0.323,0.599,0.323,0.968c0,0.922-0.738,1.706-1.706,1.752L41.867,27.02z"/>
	<path fill="#FFFFFF" d="M1.983,54.64c0-1.199-0.507-1.752-1.983-1.798v-0.83c1.891,0.138,3.55,0.277,5.118,0.277   s3.274-0.138,5.118-0.277v0.83c-1.476,0.046-1.983,0.599-1.983,1.798v8.484h10.329V54.64c0-1.199-0.507-1.752-1.983-1.798v-0.83   c1.89,0.138,3.55,0.277,5.118,0.277c1.568,0,3.274-0.138,5.118-0.277v0.83c-1.476,0.046-1.983,0.599-1.983,1.798v22.409   c0,1.199,0.507,1.752,1.983,1.798v0.83c-1.89-0.138-3.55-0.277-5.118-0.277s-3.274,0.138-5.118,0.277v-0.83   c1.476-0.046,1.983-0.599,1.983-1.798v-9.867H8.3v9.867c0,1.199,0.507,1.752,1.983,1.798v0.83c-1.89-0.138-3.55-0.277-5.118-0.277   s-3.228,0.138-5.118,0.277v-0.83c1.476-0.046,1.983-0.599,1.983-1.798L1.983,54.64z"/>
	<path fill="#FFFFFF" d="M32,69.994c0.83,4.657,4.15,6.87,8.715,6.87c2.536,0,6.179-0.738,6.179-3.919   c0-2.582-2.674-3.274-4.611-3.873l-3.043-0.876c-4.38-1.291-8.715-3.135-8.715-8.161c0-6.64,6.409-8.669,12.818-8.669   c2.72,0,5.395,0.461,7.977,1.383c0,3.089,0.184,5.671,0.323,7.931h-0.83c-0.876-3.965-4.38-5.764-8.207-5.764   c-2.121,0-5.718,0.692-5.718,3.643c0,2.352,2.075,3.043,3.827,3.55l4.519,1.291c4.334,1.245,8.346,2.813,8.346,8.392   c0,5.671-5.718,8.669-12.68,8.669c-3.182,0-6.317-0.507-9.268-1.568c0-3.366-0.138-6.363-0.323-8.807H32V69.994z"/>
	<path fill="#FFFFFF" d="M59.02,54.916c0-1.199-0.507-1.752-1.983-1.798v-0.83h21.441c0.046,2.352,0.138,4.611,0.369,6.916h-0.83   c-0.415-2.352-1.014-3.182-3.366-3.182h-9.314v7.424h5.856c1.937,0,2.213-0.646,2.49-2.167h0.83   c-0.138,1.061-0.231,2.905-0.231,4.058c0,1.153,0.138,3.043,0.231,4.058h-0.83c-0.277-1.522-0.553-2.167-2.49-2.167h-5.856v8.392   h9.821c2.305,0,3.043-0.784,3.781-4.38H80c-0.323,2.72-0.461,5.395-0.507,8.115H57.084v-0.83c1.429-0.046,1.983-0.599,1.983-1.798   v-21.81H59.02z"/>
</g>
<image xlink:href="" src="https://services.hse.gov.uk/img/hse.svg"></image>
</svg>